<?xml version="1.0" standalone="no"?>
<!DOCTYPE svg PUBLIC "-//W3C//DTD SVG 1.1//EN" "http://www.w3.org/Graphics/SVG/1.1/DTD/svg11.dtd" >
<svg xmlns="http://www.w3.org/2000/svg" xmlns:xlink="http://www.w3.org/1999/xlink" version="1.1">
<metadata>
Created by FontForge 20160407 at Wed Sep 28 02:43:11 2016
 By Jimmy Warting
Copyright (c) 2011, John Vargas Beltran (www.johnvargasbeltran.com|john.vargasbeltran@gmail.com), with Reserved Font Name "Boogaloo".
</metadata>
<defs>
<font id="Boogaloo-Regular" horiz-adv-x="500" >
  <font-face 
    font-family="Boogaloo"
    font-weight="400"
    font-stretch="normal"
    units-per-em="1000"
    panose-1="3 6 9 2 3 2 2 2 2 3"
    ascent="800"
    descent="-200"
    x-height="473"
    cap-height="704"
    bbox="-69 -246 1001 943"
    underline-thickness="79"
    underline-position="-200"
    unicode-range="U+0011-FB02"
  />
<missing-glyph horiz-adv-x="600" 
 />
    <glyph glyph-name=".notdef" horiz-adv-x="600" 
 />
    <glyph glyph-name=".null" horiz-adv-x="0" 
 />
    <glyph glyph-name="nonmarkingreturn" horiz-adv-x="333" 
 />
    <glyph glyph-name="uni0011" horiz-adv-x="0" 
 />
    <glyph glyph-name="space" unicode=" " horiz-adv-x="242" 
 />
    <glyph glyph-name="exclam" unicode="!" horiz-adv-x="278" 
d="M94 196q-18 149 -18 271.5t19 263.5l146 -28q-50 -194 -67 -517zM189 134q11 -20 11 -70t-16 -87l-119 23q10 37 10 77.5t-2 68.5z" />
    <glyph glyph-name="quotedbl" unicode="&#x22;" horiz-adv-x="348" 
d="M37 704l108 -9q-5 -117 -28 -269l-92 8q8 103 12 270zM203 704l108 -9q-5 -117 -28 -269l-92 8q8 103 12 270z" />
    <glyph glyph-name="numbersign" unicode="#" horiz-adv-x="833" 
d="M522 726l113 -9q-20 -123 -28 -187q68 -2 128 -9l-27 -110q-56 8 -114 9q-11 -115 -11 -119q68 -2 128 -9l-27 -110q-54 8 -110 9q-12 -128 -20 -191h-116q11 99 18 193q-34 0 -104 -2q-19 -142 -35 -220l-113 11q14 74 30 205q-86 -2 -129 -2l12 110q41 0 129 2
q8 75 11 119q-42 -2 -128 -2l12 110q40 0 126 2q7 90 18 180l116 -9q-8 -59 -17 -167q68 2 106 2q17 125 32 194zM476 422q-33 0 -101 -2q-3 -33 -11 -119q66 2 101 2q8 65 11 119z" />
    <glyph glyph-name="dollar" unicode="$" horiz-adv-x="484" 
d="M216 617l-2 115l100 -8q0 -79 2 -108q54 -17 89 -64t35 -85q0 -62 -21 -105l-113 34q11 28 11 49t-15 36.5t-35 15.5t-34.5 -13t-14.5 -36.5t16 -47.5t40 -39q84 -51 122 -90.5t38 -99.5t-34 -101.5t-88 -56.5q0 -57 -11 -129l-100 9q10 69 11 118q-88 21 -155 132l61 59
q84 -78 136 -78q37 0 37 30q0 22 -18 42t-60 50q-129 93 -129 202q0 65 37.5 109.5t94.5 59.5z" />
    <glyph glyph-name="percent" unicode="%" horiz-adv-x="676" 
d="M132 514q-12 -39 -12 -76q0 -68 42 -68q15 0 28 28.5t13 65.5q0 89 -39 89q-20 0 -32 -39zM64 320q-36 41 -36 115.5t37.5 141t101 66.5t95.5 -50t32 -125t-41 -132t-91 -57q-62 0 -98 41zM502 210q-12 -39 -12 -76q0 -68 42 -68q15 0 28 28.5t13 65.5q0 89 -39 89
q-20 0 -32 -39zM434 16q-36 41 -36 115.5t37.5 141t101 66.5t95.5 -50t32 -125t-41 -132t-91 -57q-62 0 -98 41zM183 -23l-77 29q250 436 454 660l64 -40q-116 -130 -219 -284t-222 -365z" />
    <glyph glyph-name="ampersand" unicode="&#x26;" horiz-adv-x="539" 
d="M465 -49q-22 22 -98 94q-105 -55 -162 -55q-81 0 -133.5 41.5t-52.5 108.5q0 47 31 86t91 86q-55 93 -55 162q0 91 65 154.5t146 63.5t131 -47t50 -114q0 -83 -75 -153q-35 -33 -98 -82q32 -42 87 -102q28 19 92 64l86 -80q-31 -24 -96 -69q15 -15 47 -45.5t44 -42.5z
M237 550.5q-21 -26.5 -21 -67t28 -93.5q109 81 109 121q0 30 -18 48t-47.5 18t-50.5 -26.5zM165 114.5q16 -14.5 39.5 -14.5t80.5 30q-43 44 -80 92q-56 -44 -56 -68.5t16 -39z" />
    <glyph glyph-name="quotesingle" unicode="'" horiz-adv-x="181" 
d="M37 704l108 -9q-5 -117 -28 -269l-92 8q8 103 12 270z" />
    <glyph glyph-name="parenleft" unicode="(" horiz-adv-x="354" 
d="M235 207q0 -216 92 -407l-130 -46q-97 178 -97 433q0 150 35 299t88 248l96 -54q-36 -84 -60 -213.5t-24 -259.5z" />
    <glyph glyph-name="parenright" unicode=")" horiz-adv-x="354" 
d="M125 283q0 216 -92 407l130 46q97 -178 97 -433q0 -150 -35 -299t-88 -248l-96 54q36 84 60 213.5t24 259.5z" />
    <glyph glyph-name="asterisk" unicode="*" horiz-adv-x="475" 
d="M268 703q10 -21 10 -41t-8 -60.5t-11 -65.5q51 28 111 92q38 -33 69 -100q-18 -17 -38 -23t-60.5 -11t-62.5 -9q45 -43 121 -77q-19 -46 -74 -97q-20 11 -32.5 28t-29.5 54.5t-28 57.5q-27 -53 -36 -139q-52 5 -115 41q4 22 16 39t42 44t47 45q-24 3 -55 3t-88 -11
q-5 20 -5 52t8 70q4 1 19.5 1t38 -9.5t52 -27t44.5 -24.5q-11 60 -51 133q43 26 116 35z" />
    <glyph glyph-name="plus" unicode="+" horiz-adv-x="833" 
d="M704 240q-53 5 -104.5 5t-121.5 -2v-13q0 -101 5 -231l-140 9q-5 130 -5 222v5q-12 -2 -211 -12l-6 120q146 5 218 13q5 134 15 247l140 -12q-11 -113 -14 -228q70 2 128 2t110 -5z" />
    <glyph glyph-name="comma" unicode="," horiz-adv-x="260" 
d="M75 197l133 -44q-10 -91 -78 -273l-92 7q27 164 37 310z" />
    <glyph glyph-name="hyphen" unicode="-" horiz-adv-x="324" 
d="M34 274l194 9q30 0 55 -3l4 -108q-30 3 -59 3l-182 -9z" />
    <glyph glyph-name="period" unicode="." horiz-adv-x="260" 
d="M188 159q11 -35 11 -89.5t-14 -90.5l-135 11q9 76 9 116.5t-1 64.5z" />
    <glyph glyph-name="slash" unicode="/" horiz-adv-x="410" 
d="M76 -83l-100 10q17 42 75.5 187t90.5 220q96 232 188 397l88 -47q-56 -86 -114.5 -214t-133 -317t-94.5 -236z" />
    <glyph glyph-name="zero" unicode="0" horiz-adv-x="484" 
d="M200 446q-22 -87 -22 -176.5t20.5 -133.5t55.5 -44q27 0 50.5 69.5t23.5 156.5q0 215 -71 215q-35 0 -57 -87zM48 252q0 95 23.5 182.5t72.5 148t116 60.5t113 -45q85 -85 85 -280q0 -85 -30 -163.5t-77 -125.5t-97 -47q-96 0 -151 74t-55 196z" />
    <glyph glyph-name="one" unicode="1" horiz-adv-x="484" 
d="M366 623q-20 -164 -20 -334.5t14 -306.5l-134 13q-7 117 -7 228.5t8 211.5l-56 -75l-76 64q63 92 133 226z" />
    <glyph glyph-name="two" unicode="2" horiz-adv-x="484" 
d="M289 647q79 0 121.5 -50t42.5 -126q0 -51 -56 -147.5t-142 -194.5q22 8 90.5 8t105.5 -7l-12 -113q-62 5 -104 5q-115 0 -256 -48l-43 87q109 91 203 223t94 187.5t-44 55.5q-36 0 -74.5 -41.5t-82.5 -115.5l-100 70q130 207 257 207z" />
    <glyph glyph-name="three" unicode="3" horiz-adv-x="484" 
d="M170.5 623.5q48.5 19.5 109.5 19.5t106 -41t45 -114.5t-116 -154.5q100 -52 100 -140.5t-66 -145.5t-132 -57t-121 21l-18 110q35 -11 86 -11t91 22.5t40 53t-25 51t-64 20.5t-84 -14l-34 103q105 35 161.5 74.5t56.5 71.5q0 36 -39 36q-52 0 -141 -62l-64 95
q60 43 108.5 62.5z" />
    <glyph glyph-name="four" unicode="4" horiz-adv-x="484" 
d="M273 163q-35 0 -137 -12l-119 81q0 24 94.5 192.5t148.5 227.5l165 -16q-24 -188 -30 -363l64 -6l-14 -105h-52q0 -114 5 -192l-120 10q-5 71 -5 183zM166 267q50 7 108 7q7 132 24 247q-85 -147 -132 -254z" />
    <glyph glyph-name="five" unicode="5" horiz-adv-x="484" 
d="M424 646v-110q-80 0 -175 -15q-1 -10 -21 -138q102 0 162 -42.5t60 -120.5q0 -178 -329 -248l-28 108q227 50 227 130q0 28 -29.5 46t-71.5 18q-13 0 -75 -13l-58 46l56 303q167 36 282 36z" />
    <glyph glyph-name="six" unicode="6" horiz-adv-x="484" 
d="M299 388q62 0 109 -45t47 -138t-59.5 -164.5t-145.5 -71.5t-137.5 69t-51.5 182q0 126 52 230q28 57 51.5 95t68.5 104l154 -13q-135 -141 -180 -267q48 19 92 19zM187 248l-1 -28q0 -63 19 -102t49.5 -39t53 34t22.5 78.5t-16.5 65.5t-44.5 21t-82 -30z" />
    <glyph glyph-name="seven" unicode="7" horiz-adv-x="484" 
d="M401 649l32 -113q-154 -312 -197 -551l-118 11q52 273 199 540q-128 -10 -217 -22l-22 108q127 17 323 27z" />
    <glyph glyph-name="eight" unicode="8" horiz-adv-x="484" 
d="M113 20q-59 53 -59 138t80 157q-65 60 -65 141t61 143t143 62t131.5 -59.5t49.5 -121.5q0 -96 -93 -167q41 -23 66.5 -62t25.5 -88q0 -72 -59 -134t-140.5 -62t-140.5 53zM309.5 97q23.5 20 23.5 50.5t-16 52.5t-32 33.5t-43 26.5q-68 -45 -68 -104q0 -35 24 -57t56 -22
t55.5 20zM212 526.5q-23 -24.5 -23 -53.5t16.5 -57t37.5 -41q43 26 67 50t24 50.5t-18.5 51t-49.5 24.5t-54 -24.5z" />
    <glyph glyph-name="nine" unicode="9" horiz-adv-x="484" 
d="M220 210q-77 0 -126.5 56.5t-49.5 134.5q0 96 68 174t154 78q69 0 127 -55q30 -29 48.5 -82.5t18.5 -125.5q0 -159 -227 -441l-95 67q87 99 157 211q-47 -17 -75 -17zM230 320q47 0 106 45q4 24 4 35q0 75 -22.5 109t-56.5 34t-65.5 -44t-31.5 -98q0 -33 18.5 -57
t47.5 -24z" />
    <glyph glyph-name="colon" unicode=":" horiz-adv-x="260" 
d="M188 159q11 -35 11 -89.5t-14 -90.5l-135 11q9 76 9 116.5t-1 64.5zM194 465q11 -35 11 -89.5t-14 -90.5l-135 11q9 76 9 116.5t-1 64.5z" />
    <glyph glyph-name="semicolon" unicode=";" horiz-adv-x="260" 
d="M194 465q11 -35 11 -89.5t-14 -90.5l-135 11q9 76 9 116.5t-1 64.5zM75 197l133 -44q-10 -91 -78 -273l-92 7q27 164 37 310z" />
    <glyph glyph-name="less" unicode="&#x3c;" horiz-adv-x="833" 
d="M128 250l11 109q292 103 536 236l25 -125q-196 -97 -414 -172q220 -114 419 -173l-26 -111q-270 74 -551 236z" />
    <glyph glyph-name="equal" unicode="=" horiz-adv-x="833" 
d="M123 464l356 8q149 0 241 -11l-18 -120q-81 11 -213 11l-366 -8v120zM123 245l356 8q149 0 241 -11l-18 -120q-81 11 -213 11l-366 -8v120z" />
    <glyph glyph-name="greater" unicode="&#x3e;" horiz-adv-x="833" 
d="M705 359l-11 -109q-292 -103 -536 -236l-25 125q196 97 414 172q-220 114 -419 173l26 111q270 -74 551 -236z" />
    <glyph glyph-name="question" unicode="?" horiz-adv-x="419" 
d="M234 700q77 0 121 -49.5t44 -124.5q0 -35 -13 -59t-20.5 -36t-25 -32t-26.5 -29q-34 -39 -62 -67q-45 -48 -45 -86q0 -14 5 -31l-85 10q-32 22 -32 52.5t20 62t46 61t45.5 51t29 32.5t21.5 27q22 31 22 51.5t-12 33.5t-33 13q-47 0 -148 -99l-92 80q131 139 240 139z
M219 134q11 -20 11 -70t-16 -87l-119 23q10 37 10 77.5t-2 68.5z" />
    <glyph glyph-name="at" unicode="@" horiz-adv-x="834" 
d="M531 -129q-61 -25 -127.5 -25t-133 24t-120.5 72t-85 129.5t-31 187t32.5 194t86.5 148t124.5 92.5t147 33t142 -24t118.5 -72.5t84 -130t31 -189t-57.5 -179.5t-142.5 -72q-47 0 -81.5 27.5t-44.5 80.5q-48 -96 -103 -96q-77 0 -107 43t-30 126t39.5 174.5t89.5 91.5
q45 0 95 -24q0 8 -2 30l117 -10q0 -168 -7 -298q4 -21 15.5 -31.5t25.5 -10.5q40 0 62.5 46t22.5 118.5t-22 136.5t-60 101q-74 75 -187 75t-197 -106t-84 -272t78 -247.5t193 -81.5q41 0 85 19zM461 389q-23 19 -48.5 19t-43.5 -58t-18 -114.5t34 -56.5q13 0 35 37.5
t40 96.5z" />
    <glyph glyph-name="A" unicode="A" horiz-adv-x="516" 
d="M353 10l-23 139l-149 -6l-38 -188l-140 12l179 725l185 -16l131 -678zM265 561l-63 -311l112 4z" />
    <glyph glyph-name="B" unicode="B" horiz-adv-x="523" 
d="M73 665q117 36 211.5 36t160.5 -50.5t66 -124.5q0 -111 -124 -176q116 -47 116 -157q0 -81 -85 -144.5t-178 -63.5q-12 0 -171 14q14 215 14 362t-10 304zM346.5 562.5q-29.5 20.5 -63 20.5t-71.5 -12q4 -120 4 -181q46 4 103 41.5t57 80.5q0 30 -29.5 50.5zM332 133.5
q37 26.5 37 61t-43 60.5t-111 32q-2 -118 -4 -177q18 -3 51 -3t70 26.5z" />
    <glyph glyph-name="C" unicode="C" horiz-adv-x="482" 
d="M269 575q-44 0 -77 -108.5t-33 -192.5q0 -176 92 -176q26 0 45.5 22.5t28 46.5t20.5 66l127 -10q-26 -123 -77.5 -188t-143.5 -65q-108 0 -166.5 81.5t-58.5 207.5q0 147 58 286q28 69 78.5 113.5t115.5 44.5q80 0 116 -53q18 -26 29.5 -53t16.5 -69q9 -67 11 -144
l-129 12q0 129 -24 162q-11 17 -29 17z" />
    <glyph glyph-name="D" unicode="D" horiz-adv-x="502" 
d="M238 701q117 0 180.5 -92t63.5 -223q0 -101 -32 -190.5t-100 -150t-159 -60.5q-18 0 -136 14q14 215 14 356t-9 312q97 34 178 34zM307.5 188.5q45.5 81.5 45.5 176t-32.5 155.5t-77.5 61q-24 0 -45 -8q4 -148 4 -248.5t-6 -209.5q7 -8 20 -8q46 0 91.5 81.5z" />
    <glyph glyph-name="E" unicode="E" horiz-adv-x="447" 
d="M75 -4q-4 158 -4 299t16 367q171 26 334 26v-123q-113 0 -210 -7q-4 -112 -5 -172q76 11 180 13l19 -110q-67 -1 -201 -15q0 -120 1 -173q87 7 208 30l17 -110q-85 -39 -201 -39z" />
    <glyph glyph-name="F" unicode="F" horiz-adv-x="422" 
d="M421 688v-123q-112 0 -210 -7q-2 -29 -3.5 -102.5t-2.5 -90.5q112 15 180 15l20 -110q-112 -3 -201 -14q0 -156 4 -275l-135 15q-2 162 -2 301t16 365q171 26 334 26z" />
    <glyph glyph-name="G" unicode="G" horiz-adv-x="498" 
d="M333 397q4 20 4 65.5t-15 84t-44 38.5q-35 0 -68 -90.5t-33 -194t20 -162t59 -58.5t59 36t30 106q-36 0 -77 -7l-21 99q91 6 228 22q6 -52 6 -95t-25.5 -107t-76 -113t-110.5 -49q-104 0 -166.5 81t-62.5 229q0 109 27 204t80 156t121 61q66 0 124 -48q30 -25 48.5 -71.5
t18.5 -97.5t-9 -99z" />
    <glyph glyph-name="H" unicode="H" horiz-adv-x="539" 
d="M201 501l1 -115l150 9q0 156 5 331l132 -12q-9 -159 -9 -344.5t11 -372.5l-128 11q-9 86 -11 276l-147 -9q3 -142 9 -289l-136 12q-11 211 -11 388t8 306l132 -12q-6 -89 -6 -179z" />
    <glyph glyph-name="I" unicode="I" horiz-adv-x="289" 
d="M233 692q-9 -158 -9 -356t13 -361l-135 12q-13 204 -13 368.5t9 348.5z" />
    <glyph glyph-name="J" unicode="J" horiz-adv-x="410" 
d="M128 229q-4 -20 -4 -51.5t13.5 -58.5t35.5 -27q30 0 43.5 46.5t13.5 101.5q0 230 -18 461l141 -12q14 -180 14 -449q0 -90 -39 -172q-20 -43 -56.5 -70.5t-83.5 -27.5q-84 0 -135 58.5t-51 145.5q0 30 8 67z" />
    <glyph glyph-name="K" unicode="K" horiz-adv-x="515" 
d="M67 6q-7 153 -7 345t10 328l137 -13q-10 -124 -10 -307q126 207 190 347l126 -50q-72 -144 -195 -334q100 -159 193 -240l-92 -104q-116 113 -222 309q0 -183 7 -296z" />
    <glyph glyph-name="L" unicode="L" horiz-adv-x="388" 
d="M85 6q-13 206 -13 377.5t11 311.5l133 -12q-15 -172 -15 -329t5 -231q36 5 177 20l20 -116q-75 -9 -212 -30z" />
    <glyph glyph-name="M" unicode="M" horiz-adv-x="650" 
d="M56 -6q-8 260 -8 392t17 282l188 -15q35 -126 74 -353q56 183 99 396l189 -17q8 -309 8 -451.5t-9 -253.5l-137 13q13 126 22 534l-8 1q-10 -39 -32 -134q-46 -197 -89 -336l-91 8q-24 96 -55.5 248.5t-48.5 224.5l-8 1q9 -334 21 -552z" />
    <glyph glyph-name="N" unicode="N" horiz-adv-x="544" 
d="M500 704l1 -465q0 -115 -8 -247l-112 11q-129 293 -211 439q1 -148 1 -472l-117 13q-3 62 -3 120q0 242 27 564l133 -13q99 -273 178 -415q-6 302 -14 476z" />
    <glyph glyph-name="O" unicode="O" horiz-adv-x="521" 
d="M99.5 51.5q-65.5 85.5 -65.5 260t71.5 284.5t168.5 110t161.5 -86t64.5 -259t-72 -284t-167.5 -111t-161 85.5zM199 509.5q-32 -77.5 -32 -195t27.5 -174t68.5 -56.5t72.5 78t31.5 195.5t-26.5 173.5t-65.5 56q-44 0 -76 -77.5z" />
    <glyph glyph-name="P" unicode="P" horiz-adv-x="465" 
d="M69 -17q-4 113 -4 271.5t10 423.5q84 31 172.5 31t158 -65.5t69.5 -165t-75.5 -172t-197.5 -106.5q0 -112 3 -230zM338 473q0 53 -27.5 86t-61.5 33q-9 0 -41 -5q-5 -141 -6 -273q63 20 99.5 63t36.5 96z" />
    <glyph glyph-name="Q" unicode="Q" horiz-adv-x="521" 
d="M99.5 51.5q-65.5 85.5 -65.5 260t71.5 284.5t168.5 110t161.5 -86t64.5 -262t-80 -293q38 -51 98 -103l-129 -48q-34 42 -54 72q-37 -20 -72 -20q-98 0 -163.5 85.5zM199 509.5q-32 -77.5 -32 -195t27.5 -174t68.5 -56.5q5 0 13 2q-21 45 -30 90l92 -7q29 82 29 194
t-26.5 168t-65.5 56q-44 0 -76 -77.5z" />
    <glyph glyph-name="R" unicode="R" horiz-adv-x="525" 
d="M62 -9q13 240 13 428t-1 247q110 52 229 52q88 0 147.5 -56t59.5 -158q0 -118 -167 -227q91 -114 186 -251l-96 -71q-63 95 -226 310q-3 -154 -9 -289zM336 419.5q52 51.5 52 93.5t-24.5 65t-64.5 23t-88 -17q0 -169 -1 -251q74 35 126 86.5z" />
    <glyph glyph-name="S" unicode="S" horiz-adv-x="475" 
d="M302 437q13 49 13 82t-18 54.5t-46.5 21.5t-47.5 -28t-19 -64q0 -70 80 -120q80 -52 109 -75t41 -42q30 -49 30 -101q0 -90 -60.5 -143.5t-136.5 -53.5q-90 0 -151 76q-44 55 -81 137l97 47q23 -60 57.5 -101.5t73.5 -41.5q25 0 45 16t20 48.5t-25 60.5t-67 57t-65 47.5
t-51 47.5q-53 56 -53 143.5t61 147t145 59.5t141.5 -65t57.5 -133.5t-26 -117.5z" />
    <glyph glyph-name="T" unicode="T" horiz-adv-x="387" 
d="M145 -2q-10 177 -10 308.5t6 274.5l-122 -17l-22 116q98 17 194 25l187 10l19 -111q-55 -3 -124 -9q-6 -144 -6 -264t4 -344z" />
    <glyph glyph-name="U" unicode="U" horiz-adv-x="539" 
d="M191 235q0 -52 23 -93t54.5 -41t50.5 28t27 74q14 81 14 187.5t-13 312.5l136 -14q14 -206 14 -280t-2 -103.5t-8 -68.5t-16 -73t-27 -68t-40 -58q-51 -55 -138.5 -55t-149.5 78t-62 174q0 211 23 450l136 -13q-22 -219 -22 -437z" />
    <glyph glyph-name="V" unicode="V" horiz-adv-x="475" 
d="M21 680l129 -12q38 -249 95 -479l4 1q70 269 113 526l132 -11q-67 -344 -199 -711l-115 10q-102 361 -159 676z" />
    <glyph glyph-name="W" unicode="W" horiz-adv-x="663" 
d="M299 626l100 -9q7 -80 21.5 -211.5t20.5 -186.5l5 1q71 306 92 479l131 -11q-56 -331 -164 -680l-96 8q-34 118 -76 309q-43 -206 -82 -329l-96 8q-85 424 -115 688l129 -11q16 -169 50 -462l5 1q58 267 75 406z" />
    <glyph glyph-name="X" unicode="X" horiz-adv-x="463" 
d="M23 35q64 157 140 301q-79 178 -113 331l139 -12q10 -74 50 -218q66 134 142 263l97 -83q-83 -124 -172 -292q57 -139 146 -333l-135 14q-39 89 -84 214q-79 -170 -105 -250z" />
    <glyph glyph-name="Y" unicode="Y" horiz-adv-x="444" 
d="M161 191v77q-131 277 -145 399l125 -12q22 -112 92 -268q83 181 129 327l116 -11q-74 -211 -178 -429q-2 -90 -2 -158t4 -137l-132 14q-9 93 -9 198z" />
    <glyph glyph-name="Z" unicode="Z" horiz-adv-x="458" 
d="M193 122q36 3 95 3t152 -14l-17 -119q-113 15 -174.5 15t-193.5 -22l-16 105q188 300 276 472q-138 -8 -241 -23l-19 117q123 26 393 29l17 -87q-148 -282 -272 -476z" />
    <glyph glyph-name="bracketleft" unicode="[" horiz-adv-x="373" 
d="M209 -121l157 9l6 -98q-81 -23 -192 -28l-115 11q12 322 12 535.5t-12 401.5q97 14 171 14t113 -9l30 -100q-52 4 -118 4l-48 -3q-16 -265 -16 -425t12 -312z" />
    <glyph glyph-name="backslash" unicode="\" horiz-adv-x="410" 
d="M440 -73l-100 -10q-20 47 -94.5 236t-133 317t-114.5 214l88 47q92 -165 188 -397q32 -75 90.5 -220t75.5 -187z" />
    <glyph glyph-name="bracketright" unicode="]" horiz-adv-x="373" 
d="M185 607l-157 -9l-6 98q81 23 192 28l115 -11q-12 -322 -12 -536t12 -401q-97 -14 -171 -14t-113 9l-30 100q52 -4 118 -4l48 3q16 265 16 425t-12 312z" />
    <glyph glyph-name="asciicircum" unicode="^" horiz-adv-x="1000" 
d="M452 742l109 -11q114 -180 266 -336l-135 -35q-118 134 -192 254q-126 -135 -193 -259l-121 36q80 168 266 351z" />
    <glyph glyph-name="underscore" unicode="_" 
d="M0 -120l260 8q149 0 241 -11l-18 -110q-66 11 -213 11l-270 -8v110z" />
    <glyph glyph-name="grave" unicode="`" 
d="M323 572l-45 -57q-98 50 -193 73l54 89q71 -31 184 -105z" />
    <glyph glyph-name="a" unicode="a" horiz-adv-x="390" 
d="M103 427.5q42 54.5 110 54.5t100.5 -56.5t32.5 -160.5t-12 -287l-84 7l-8 32q-47 -27 -96 -27t-81 32.5t-32 93.5t60.5 105t139.5 46v27q0 79 -38 79q-19 0 -34.5 -26.5t-22.5 -60.5l-92 9q15 78 57 132.5zM135 110q0 -32 38 -32q26 0 55 12l2 84q-47 -4 -71 -23.5
t-24 -40.5z" />
    <glyph glyph-name="b" unicode="b" horiz-adv-x="431" 
d="M305 471q48 0 71.5 -53t23.5 -125.5t-15.5 -143.5t-49 -120.5t-76.5 -49.5q-63 0 -104 56q0 -14 2 -40l-88 9q-6 120 -6 322.5t11 406.5l114 -10q-12 -197 -12 -358q67 106 129 106zM176 194l1 -78q12 -17 21 -23.5t27 -6.5q25 0 44 55.5t19 105.5t-5.5 72t-23.5 22
q-38 0 -83 -147z" />
    <glyph glyph-name="c" unicode="c" horiz-adv-x="354" 
d="M232 256q2 14 2 36t-9 45t-23 23q-28 0 -40.5 -64.5t-12.5 -118.5q0 -91 37 -91q30 0 85 105l74 -53q-27 -73 -67.5 -116t-97.5 -43t-102.5 45t-45.5 137q0 98 32 195q18 53 53.5 87t90.5 34t91.5 -56t36.5 -124q0 -29 -9 -50z" />
    <glyph glyph-name="d" unicode="d" horiz-adv-x="410" 
d="M250 453l1 124q0 69 -3 157l117 -10q2 -71 2 -257.5t-16 -480.5l-89 8q-3 40 -6 94q-43 -86 -93 -86q-77 0 -107 48t-30 139.5t39.5 189.5t89.5 98q45 0 95 -24zM253 360q-25 19 -49.5 19t-42.5 -64.5t-18 -134.5t34 -70q13 0 35 43.5t40 110.5z" />
    <glyph glyph-name="e" unicode="e" horiz-adv-x="367" 
d="M184 72q38 0 81 73l76 -45q-19 -33 -36.5 -56t-52.5 -44t-78 -21q-63 0 -106 53.5t-43 144.5q0 104 37 194q20 47 57.5 76.5t77 29.5t63.5 -12.5t38.5 -28t25.5 -45.5t15.5 -49t7.5 -55q4 -48 4 -87q-80 -22 -207 -40q3 -40 14 -64t26 -24zM206 379q-22 0 -39.5 -44
t-20.5 -102q53 11 92 21q0 125 -32 125z" />
    <glyph glyph-name="f" unicode="f" horiz-adv-x="287" 
d="M71 445q0 135 40.5 212.5t104 77.5t97 -64.5t33.5 -177.5l-93 10q0 112 -35 112q-30 0 -30 -170v-29q67 5 109 5v-93q-69 0 -108 -5q0 -153 11 -340l-117 12q-8 138 -11 312q-26 -4 -36 -7l-21 90q10 3 56 11v44z" />
    <glyph glyph-name="g" unicode="g" horiz-adv-x="404" 
d="M193 -134q31 0 50 63.5t19 157.5q-53 -95 -109.5 -95t-91 38.5t-34.5 117t27 156t66.5 124t75.5 46.5q63 0 116 -51l70 -10q-13 -65 -13 -199.5t-7.5 -198t-24.5 -124.5t-50 -97t-87 -36t-103 43.5t-79 104.5l84 36q39 -76 91 -76zM221 372q-25 0 -50.5 -72t-25.5 -153
q0 -31 8.5 -47t19 -16t27.5 20t36.5 64t28.5 97l2 76q-29 31 -46 31z" />
    <glyph glyph-name="h" unicode="h" horiz-adv-x="425" 
d="M181 407q46 57 90.5 57t72.5 -30q49 -52 49 -132q0 -145 -11 -303l-116 11q7 147 7 289q0 53 -27 53q-32 0 -69 -140q-2 -100 -10 -227l-117 11q13 172 13 384t-7 341l117 -11q8 -141 8 -303z" />
    <glyph glyph-name="i" unicode="i" horiz-adv-x="236" 
d="M69 477l114 -11v-480l-114 11v480zM77 653l112 -13l-10 -112l-112 14z" />
    <glyph glyph-name="j" unicode="j" horiz-adv-x="252" 
d="M203 -5q0 -115 -39 -177.5t-94 -62.5q-24 0 -59.5 19t-61.5 51l35 77q39 -30 58.5 -30t34 29.5t14.5 83.5q0 341 -5 483l108 -11q9 -151 9 -462zM92 653l112 -13l-10 -112l-112 14z" />
    <glyph glyph-name="k" unicode="k" horiz-adv-x="410" 
d="M63 -8q-4 104 -4 308t15 431l117 -9q-15 -245 -15 -472q104 127 156 247l80 -70q-45 -105 -120 -208q78 -91 124 -170l-76 -72q-54 84 -164 199q0 -111 4 -195z" />
    <glyph glyph-name="l" unicode="l" horiz-adv-x="236" 
d="M196 722q-15 -253 -15 -456t5 -285l-118 11q-4 104 -4 295.5t15 443.5z" />
    <glyph glyph-name="m" unicode="m" horiz-adv-x="647" 
d="M271 446q61 0 93 -42q52 76 103 76q139 0 139 -209q0 -118 -20 -286l-116 10q19 187 19 285t-32 98q-14 0 -33 -45t-25 -100q-2 -125 -8 -223l-117 11q8 141 8 232t-25 91q-16 0 -41.5 -55.5t-36.5 -116.5q1 -92 9 -190l-117 11q-11 141 -11 257t6 217l83 -6
q6 -27 17 -98q53 83 105 83z" />
    <glyph glyph-name="n" unicode="n" horiz-adv-x="424" 
d="M257 476q132 0 132 -220q0 -116 -13 -246l-117 11q11 114 11 230.5t-33 116.5q-16 0 -41 -80.5t-31 -157.5q2 -41 8 -148l-117 11q-11 141 -11 248t6 192l74 -8q2 -8 15 -65q58 116 117 116z" />
    <glyph glyph-name="o" unicode="o" horiz-adv-x="368" 
d="M141 180q0 -113 50 -113q22 0 37 63.5t15 121.5q0 128 -42 128q-27 0 -43.5 -68.5t-16.5 -131.5zM24 189q0 93 38 182q20 45 56.5 73.5t81.5 28.5t77.5 -20.5t49.5 -54.5q33 -67 33 -146q0 -109 -44.5 -193.5t-124.5 -84.5q-167 0 -167 215z" />
    <glyph glyph-name="p" unicode="p" horiz-adv-x="410" 
d="M172 405q40 61 99 61t92 -48t33 -126q0 -116 -49.5 -211t-105.5 -95q-40 0 -69 10q2 -138 7 -241l-117 12q-5 180 -5 382.5t14 349.5l104 -11zM202 86q28 0 52.5 55t24.5 110.5t-10 86t-23 30.5q-22 0 -38.5 -26t-34.5 -75q-1 -52 -1 -160q15 -21 30 -21z" />
    <glyph glyph-name="q" unicode="q" horiz-adv-x="402" 
d="M373 442q-18 -131 -18 -352.5t6 -328.5l-117 11q-6 99 -6 243q-38 -29 -73 -29q-58 0 -97.5 52.5t-39.5 134.5q0 122 41.5 212t106 90t118.5 -75q8 27 11 49zM180 79q17 0 33.5 26t26.5 57q2 75 8 161q-5 22 -17.5 36t-26.5 14q-24 0 -41.5 -60.5t-17.5 -114.5t10 -86.5
t25 -32.5z" />
    <glyph glyph-name="r" unicode="r" horiz-adv-x="301" 
d="M239 361q-42 0 -63 -106q2 -70 2 -134t-4 -144l-116 10q3 147 3 162q0 185 -18 283l75 -8q7 -29 16 -51q49 105 99 105q41 0 72 -36l-26 -92q-16 11 -40 11z" />
    <glyph glyph-name="s" unicode="s" horiz-adv-x="347" 
d="M237 315q0 60 -30 60q-15 0 -27.5 -14.5t-12.5 -39t9.5 -40.5t35 -31.5t40 -25t34.5 -26.5q41 -36 41 -92.5t-42.5 -91.5t-95.5 -35t-95.5 28.5t-68.5 71.5l54 61q40 -69 84 -69q15 0 26 8.5t11 23.5q0 32 -46 59q-49 27 -77 60t-28 93.5t50 109t107.5 48.5t91 -39.5
t33.5 -106.5q0 -27 -6 -58l-91 8q3 23 3 38z" />
    <glyph glyph-name="t" unicode="t" horiz-adv-x="287" 
d="M285 418v-95q-48 0 -74 -1q-3 -100 -3 -336l-118 11q0 175 3 317q-15 0 -57 -5l-15 82q24 5 75 13q2 74 8 216l119 -11q-6 -99 -9 -192q25 1 71 1z" />
    <glyph glyph-name="u" unicode="u" horiz-adv-x="420" 
d="M378 469l-2 -158q0 -223 8 -328l-99 10q-3 42 -13 85q-55 -81 -110.5 -81t-88.5 38t-33 105q0 130 19 310l116 -11q-18 -171 -18 -284q0 -51 32 -51q15 0 36.5 41t34.5 99q-1 22 -1 52t3 183z" />
    <glyph glyph-name="v" unicode="v" horiz-adv-x="366" 
d="M238 -16l-128 12q-74 298 -90 467l114 -10q17 -184 47 -330q41 150 87 377l108 -9q-57 -263 -138 -507z" />
    <glyph glyph-name="w" unicode="w" horiz-adv-x="516" 
d="M399 -12l-94 8q-25 110 -45 204q-25 -89 -66 -215l-104 11q-61 298 -75 467l114 -11q16 -219 32 -334q36 142 72 326l77 -7q12 -161 37 -294q35 137 77 356l108 -10q-44 -211 -133 -501z" />
    <glyph glyph-name="x" unicode="x" horiz-adv-x="368" 
d="M113 -29l-106 31q46 107 116 226q-60 111 -84 247l111 -11q14 -70 41 -144q60 96 87 177l86 -42q-35 -109 -123 -223q44 -103 112 -183l-75 -71q-57 74 -99 162q-49 -117 -66 -169z" />
    <glyph glyph-name="y" unicode="y" horiz-adv-x="376" 
d="M287 501l96 -56q-83 -257 -170 -682l-110 10q16 79 53 218q-96 184 -121 464l112 -11q15 -184 48 -314q46 214 92 371z" />
    <glyph glyph-name="z" unicode="z" horiz-adv-x="344" 
d="M55 461q80 16 147.5 16t107.5 -3l16 -92q-88 -123 -174 -278h48q65 0 128 -7l-13 -92q-62 6 -112 6t-141 -15l-18 103q113 209 167 282q-86 -7 -137 -19z" />
    <glyph glyph-name="braceleft" unicode="{" 
d="M273 121q0 -26 -11 -79.5t-11 -75.5q0 -40 28.5 -64.5t80.5 -31.5l-20 -115q-99 5 -159 60t-60 136q0 28 11 82.5t11 82.5q0 62 -76 64l-15 109q52 1 71.5 21.5t19.5 50t-8.5 80.5t-8.5 77q0 90 71 150.5t188 65.5v-100q-68 -11 -98.5 -44t-30.5 -92q0 -19 8.5 -63.5
t8.5 -66.5q0 -76 -86 -123q86 -47 86 -124z" />
    <glyph glyph-name="bar" unicode="|" 
d="M284 760l8 -550q0 -281 -11 -455l-80 7q11 166 11 438l-8 560h80z" />
    <glyph glyph-name="braceright" unicode="}" 
d="M144 368q0 26 11 79.5t11 75.5q0 40 -28.5 64.5t-80.5 31.5l20 115q99 -5 159 -60t60 -136q0 -28 -11 -82.5t-11 -81.5q0 -63 76 -65l15 -109q-52 -1 -71.5 -21.5t-19.5 -50t8.5 -80.5t8.5 -77q0 -90 -71 -150.5t-188 -65.5v100q68 11 98.5 44t30.5 92q0 19 -8.5 63.5
t-8.5 66.5q0 76 86 123q-86 47 -86 124z" />
    <glyph glyph-name="asciitilde" unicode="~" horiz-adv-x="833" 
d="M151.5 335.5q54.5 56.5 114 56.5t138.5 -21t116 -21q88 0 140 57l88 -7q-14 -83 -69.5 -129.5t-140.5 -46.5q-62 0 -142.5 25t-112 25t-55 -21t-31.5 -50l-112 11q12 65 66.5 121.5z" />
    <glyph glyph-name="nbspace" unicode="&#xa0;" horiz-adv-x="484" 
 />
    <glyph glyph-name="exclamdown" unicode="&#xa1;" horiz-adv-x="278" 
d="M185 512q18 -149 18 -271.5t-19 -263.5l-146 28q50 194 67 517zM90 574q-11 20 -11 70t16 87l119 -23q-10 -37 -10 -77.5t2 -68.5z" />
    <glyph glyph-name="cent" unicode="&#xa2;" horiz-adv-x="484" 
d="M303 354q2 14 2 36t-10.5 45t-26.5 23q-28 0 -40.5 -64.5t-12.5 -118.5q0 -91 37 -91q30 0 85 105l74 -53q-43 -116 -109 -148q-1 -51 -11 -114l-100 9q9 60 10 102q-46 16 -74.5 59t-28.5 105.5t9 119t37.5 115.5t72.5 80q-3 60 -3 118l100 -8q0 -29 4 -111
q42 -20 65.5 -68t23.5 -92t-9 -58z" />
    <glyph glyph-name="sterling" unicode="&#xa3;" horiz-adv-x="484" 
d="M333 654q61 0 95.5 -53.5t34.5 -134.5q0 -26 -6 -60l-98 10q4 30 4 50q0 78 -35 78q-43 0 -65 -201l-2 -14q73 5 139 5l14 -95q-109 0 -168 -2q-19 -83 -62 -136q155 21 293 22l10 -110q-264 -2 -424 -34l-46 101q49 27 73.5 60.5t37.5 90.5q-47 -3 -83 -9l-22 78
q72 11 117 17l3 36q23 301 190 301z" />
    <glyph glyph-name="currency" unicode="&#xa4;" horiz-adv-x="606" 
d="M20 232l84 90q-13 35 -13 94.5t26 118.5q-71 75 -110 123l96 62q42 -49 85 -94q51 37 118 37t112 -29q54 48 106 88l72 -97q-49 -36 -106 -86q17 -45 17 -99t-21 -106l105 -105l-85 -85q-58 62 -92 96q-52 -36 -119 -36t-115 26l-85 -83zM234.5 516
q-26.5 -54 -26.5 -110.5t25.5 -82.5t57.5 -26q48 0 73.5 50.5t25.5 100.5t-19 86t-64.5 36t-72 -54z" />
    <glyph glyph-name="yen" unicode="&#xa5;" horiz-adv-x="481" 
d="M171 191v28q-69 -5 -126 -12l-12 68l118 12l-21 40q-36 -4 -85 -13l-12 68l66 9q-73 156 -83 236l120 -12q23 -101 97 -248q61 141 114 307l111 -11q-41 -122 -94 -248q18 1 56 1l4 -75q-61 0 -93 -1l-20 -43q70 2 109 2l4 -75q-87 0 -135 -1q-1 -30 -1 -102.5t4 -141.5
l-112 14q-9 62 -9 198z" />
    <glyph glyph-name="brokenbar" unicode="&#xa6;" 
d="M284 760q0 -93 6 -339l-81 5q-5 275 -5 334h80zM212 140l80 -7q-2 -222 -11 -378l-80 7q9 137 11 378z" />
    <glyph glyph-name="section" unicode="&#xa7;" horiz-adv-x="520" 
d="M85 183q-48 51 -48 124.5t51 127.5q-41 47 -41 103q0 93 63 147.5t145 54.5t139.5 -65.5t57.5 -126t-26 -104.5l-124 41q13 37 13 65.5t-17.5 50.5t-44 22t-48 -23.5t-21.5 -62.5t87.5 -79.5t135 -91t47.5 -117.5q0 -86 -50 -143q40 -43 40 -95q0 -98 -60 -150.5
t-144 -52.5q-83 0 -144 70q-50 57 -81 123l97 47q72 -123 128 -123q28 0 48 15.5t20 45.5q0 50 -87.5 98t-135.5 99zM328 244q0 58 -114 102q-26 10 -38 17q-12 -31 -12 -61q0 -56 100 -99q30 -14 43 -21q21 24 21 62z" />
    <glyph glyph-name="dieresis" unicode="&#xa8;" 
d="M213 649q11 -16 11 -58t-14 -64l-95 10q9 49 9 75.5t-1 44.5zM368 651q11 -16 11 -58t-14 -64l-95 10q9 49 9 75.5t-1 44.5z" />
    <glyph glyph-name="copyright" unicode="&#xa9;" horiz-adv-x="746" 
d="M696 382q0 -102 -39 -192t-115 -147t-173 -57q-137 0 -228 85.5t-91 260t97.5 284.5t233 110t225.5 -86t90 -258zM369 72q69 0 119 44q100 87 100 269q0 128 -58.5 191t-149 63t-156.5 -86.5t-66 -219.5t60 -197t151 -64zM379 491q-22 0 -38.5 -60.5t-16.5 -110.5
q0 -91 45 -91q29 0 45 70l105 -8q-17 -72 -52 -110t-103.5 -38t-108.5 48.5t-40 114t16 123t56.5 103t97.5 45.5q32 0 55.5 -12.5t35.5 -29.5t20 -45q9 -36 11 -102l-106 10q0 93 -22 93z" />
    <glyph glyph-name="ordfeminine" unicode="&#xaa;" horiz-adv-x="293" 
d="M71 673.5q32 38.5 84.5 38.5t77.5 -40t25 -102t-8 -212l-74 4l-6 23q-29 -19 -65 -19t-61.5 23t-25.5 65.5t44 73.5t102 33v18q0 46 -21.5 46t-30.5 -51l-85 6q12 55 44 93.5zM110 455q0 -17 16.5 -17t33.5 8l2 39q-25 -2 -38.5 -11t-13.5 -19z" />
    <glyph glyph-name="guillemotleft" unicode="&#xab;" horiz-adv-x="478" 
d="M145 425l105 -25q-36 -90 -94 -182q46 -105 99 -173l-96 -41q-67 77 -131 218q77 107 117 203zM345 425l105 -25q-36 -90 -94 -182q46 -105 99 -173l-96 -41q-67 77 -131 218q77 107 117 203z" />
    <glyph glyph-name="logicalnot" unicode="&#xac;" horiz-adv-x="833" 
d="M123 423l356 8q137 0 221 -11q10 -64 10 -137.5t-10 -109.5l-120 10q8 37 8 70v66q-64 2 -99 2l-366 -8v110z" />
    <glyph glyph-name="sfthyphen" unicode="&#xad;" horiz-adv-x="324" 
d="M34 274l194 9q30 0 55 -3l4 -108q-30 3 -59 3l-182 -9z" />
    <glyph glyph-name="registered" unicode="&#xae;" horiz-adv-x="746" 
d="M696 382q0 -102 -39 -192t-115 -147t-173 -57q-137 0 -228 85.5t-91 260t97.5 284.5t233 110t225.5 -86t90 -258zM369 72q69 0 119 44q100 87 100 269q0 128 -58.5 191t-149 63t-156.5 -86.5t-66 -219.5t60 -197t151 -64zM234 164q8 188 8 269t-1 115q72 29 140 29
t108 -32t40 -89q0 -68 -95 -129q48 -62 96 -133l-74 -51q-16 26 -109 157q-1 -51 -5 -145zM406.5 407.5q23.5 29.5 23.5 48.5q0 35 -38 35q-21 0 -44 -10q0 -21 0.5 -62t0.5 -61q34 20 57.5 49.5z" />
    <glyph glyph-name="macron" unicode="&#xaf;" horiz-adv-x="403" 
d="M45 635l214 9q51 0 95 -3l4 -98q-48 3 -99 3l-202 -9z" />
    <glyph glyph-name="degree" unicode="&#xb0;" horiz-adv-x="329" 
d="M111.5 503q16.5 -16 48 -16t53 29.5t21.5 61.5t-16.5 47t-48.5 15t-53 -28t-21 -60.5t16.5 -48.5zM271 463.5q-46 -52.5 -113 -52.5t-106.5 37.5t-39.5 100.5t46 115t113 52t106.5 -37.5t39.5 -100t-46 -115z" />
    <glyph glyph-name="plusminus" unicode="&#xb1;" horiz-adv-x="833" 
d="M704 340q-53 5 -104.5 5t-121.5 -2q0 -74 5 -164l-140 9q-5 85 -5 147q-188 -11 -211 -12l-6 120q116 3 218 13q5 92 15 167l140 -12q-11 -73 -14 -148q70 2 128 2t110 -5zM123 105l356 8q149 0 241 -11l-18 -120q-81 11 -213 11l-366 -8v120z" />
    <glyph glyph-name="twosuperior" unicode="&#xb2;" horiz-adv-x="364" 
d="M290.5 609.5q28.5 -30.5 28.5 -74.5q0 -68 -122 -197q34 2 109 2l-7 -88q-33 3 -82 3t-134 -18l-38 74q66 49 123 119.5t57 96t-16 25.5q-19 0 -91 -81l-66 58q41 48 65 71q45 40 95 40t78.5 -30.5z" />
    <glyph glyph-name="threesuperior" unicode="&#xb3;" horiz-adv-x="324" 
d="M171 637q42 0 75 -28t33 -67q0 -57 -74 -96q32 -6 49.5 -26.5t17.5 -50.5q0 -61 -48 -93.5t-112 -32.5q-35 0 -57 6l-9 82q24 -2 48.5 -2t51.5 10.5t27 27.5t-12.5 27.5t-37.5 10.5t-42 -9l-27 64q61 18 96 42t35 40.5t-14 16.5q-33 0 -82 -36l-44 66q65 48 126 48z" />
    <glyph glyph-name="acute" unicode="&#xb4;" 
d="M230 515l-45 57q113 74 184 105l54 -89q-95 -23 -193 -73z" />
    <glyph glyph-name="mu" unicode="&#xb5;" horiz-adv-x="420" 
d="M378 469l-2 -158q0 -223 8 -328l-99 10q-3 42 -13 85q-55 -81 -107 -81q-8 0 -20 2q-6 -73 -10 -243l-108 9q5 138 26 303q-13 29 -13 72q0 130 19 310l116 -11q-18 -171 -18 -284q0 -51 32 -51q15 0 36.5 41t34.5 99q-1 22 -1 52t3 183z" />
    <glyph glyph-name="mu" unicode="&#x3bc;" horiz-adv-x="420" 
d="M378 469l-2 -158q0 -223 8 -328l-99 10q-3 42 -13 85q-55 -81 -107 -81q-8 0 -20 2q-6 -73 -10 -243l-108 9q5 138 26 303q-13 29 -13 72q0 130 19 310l116 -11q-18 -171 -18 -284q0 -51 32 -51q15 0 36.5 41t34.5 99q-1 22 -1 52t3 183z" />
    <glyph glyph-name="paragraph" unicode="&#xb6;" 
d="M268 650q8 -248 8 -393t-11 -267l-80 7q11 115 11 240t-1 156q-20 -6 -66.5 -6t-81 39.5t-34.5 94.5q0 213 282 213q98 0 201 -10l-14 -76q-7 1 -57 4q0 -15 3.5 -131.5t3.5 -256t-11 -269.5l-80 7q11 122 11 318q0 13 -8 333q-74 -3 -76 -3z" />
    <glyph glyph-name="periodcentered" unicode="&#xb7;" horiz-adv-x="260" 
d="M188 399q11 -35 11 -89.5t-14 -90.5l-135 11q9 77 9 117t-1 64z" />
    <glyph glyph-name="cedilla" unicode="&#xb8;" 
d="M267 -6q0 -35 8 -59q12 3 23 3q34 0 59.5 -21t25.5 -61.5t-33 -64t-102 -23.5t-126 43l18 45q69 -37 115 -37q17 0 29.5 7.5t12.5 20t-10 20.5t-24.5 8t-28.5 -7l-28 3q1 66 26 123h35z" />
    <glyph glyph-name="onesuperior" unicode="&#xb9;" horiz-adv-x="274" 
d="M229 635q-12 -74 -12 -181t8 -209l-100 8q-4 55 -4 126t4 126l-24 -33l-56 39q44 53 90 132z" />
    <glyph glyph-name="ordmasculine" unicode="&#xba;" horiz-adv-x="276" 
d="M114 504q0 -60 25 -60q11 0 19 38.5t8 91t-20 52.5q-14 0 -23 -41.5t-9 -80.5zM16 511q0 104 54 165q31 36 76 36q62 0 90 -47.5t28 -117t-33 -129t-92 -59.5q-123 0 -123 152z" />
    <glyph glyph-name="guillemotright" unicode="&#xbb;" horiz-adv-x="478" 
d="M128 4l-105 25q36 90 94 182q-46 105 -99 173l96 41q67 -77 131 -218q-77 -107 -117 -203zM325 4l-105 25q36 90 94 182q-46 105 -99 173l96 41q67 -77 131 -218q-77 -107 -117 -203z" />
    <glyph glyph-name="onequarter" unicode="&#xbc;" horiz-adv-x="771" 
d="M588 89q-9 0 -70 -7l-89 47q0 14 55 112t86 133l126 -11q-15 -102 -17 -197l47 -4l-8 -74h-40q0 -77 2 -113l-89 8q-3 33 -3 106zM536 162q32 4 52 4q5 82 14 116q-41 -65 -66 -120zM198 -23l-77 29q250 436 454 660l64 -40q-116 -130 -219 -284t-222 -365zM229 635
q-12 -74 -12 -181t8 -209l-100 8q-4 55 -4 126t4 126l-24 -33l-56 39q44 53 90 132z" />
    <glyph glyph-name="onehalf" unicode="&#xbd;" horiz-adv-x="793" 
d="M198 -23l-77 29q250 436 454 660l64 -40q-116 -130 -219 -284t-222 -365zM229 635q-12 -74 -12 -181t8 -209l-100 8q-4 55 -4 126t4 126l-24 -33l-56 39q44 53 90 132zM719.5 342.5q28.5 -30.5 28.5 -74.5q0 -68 -122 -197q34 2 109 2l-7 -88q-33 3 -82 3t-134 -18
l-38 74q66 49 123 119.5t57 96t-16 25.5q-19 0 -91 -81l-66 58q41 48 65 71q45 40 95 40t78.5 -30.5z" />
    <glyph glyph-name="threequarters" unicode="&#xbe;" horiz-adv-x="782" 
d="M599 89q-9 0 -70 -7l-89 47q0 14 55 112t86 133l126 -11q-15 -102 -17 -197l47 -4l-8 -74h-40q0 -77 2 -113l-89 8q-3 33 -3 106zM547 162q32 4 52 4q5 82 14 116q-41 -65 -66 -120zM209 -23l-77 29q250 436 454 660l64 -40q-116 -130 -219 -284t-222 -365zM171 637
q42 0 75 -28t33 -67q0 -57 -74 -96q32 -6 49.5 -26.5t17.5 -50.5q0 -61 -48 -93.5t-112 -32.5q-35 0 -57 6l-9 82q24 -2 48.5 -2t51.5 10.5t27 27.5t-12.5 27.5t-37.5 10.5t-42 -9l-27 64q61 18 96 42t35 40.5t-14 16.5q-33 0 -82 -36l-44 66q65 48 126 48z" />
    <glyph glyph-name="questiondown" unicode="&#xbf;" horiz-adv-x="419" 
d="M189 -23q-77 0 -121 49.5t-44 124.5q0 35 13 59t20.5 36t25 32t25.5 30q34 37 63 66q45 48 45 86q0 14 -5 31l85 -10q32 -22 32 -52.5t-20 -62t-46 -61t-45.5 -51t-29 -32.5t-21.5 -28q-22 -30 -22 -50.5t12 -33.5t33 -13q47 0 148 99l92 -80q-131 -139 -240 -139z
M204 543q-11 20 -11 70t16 87l119 -23q-10 -37 -10 -77.5t2 -68.5z" />
    <glyph glyph-name="Agrave" unicode="&#xc0;" horiz-adv-x="516" 
d="M353 10l-23 139l-149 -6l-38 -188l-140 12l179 725l185 -16l131 -678zM265 561l-63 -311l112 4zM337 823l-45 -57q-98 50 -193 73l54 89q71 -31 184 -105z" />
    <glyph glyph-name="Aacute" unicode="&#xc1;" horiz-adv-x="516" 
d="M353 10l-23 139l-149 -6l-38 -188l-140 12l179 725l185 -16l131 -678zM265 561l-63 -311l112 4zM244 766l-45 57q113 74 184 105l54 -89q-95 -23 -193 -73z" />
    <glyph glyph-name="Acircumflex" unicode="&#xc2;" horiz-adv-x="516" 
d="M353 10l-23 139l-149 -6l-38 -188l-140 12l179 725l185 -16l131 -678zM265 561l-63 -311l112 4zM237 923l68 -5q31 -30 101 -115l-58 -44q-52 46 -81 70q-50 -35 -100 -79l-58 43q72 81 128 130z" />
    <glyph glyph-name="Atilde" unicode="&#xc3;" horiz-adv-x="516" 
d="M353 10l-23 139l-149 -6l-38 -188l-140 12l179 725l185 -16l131 -678zM265 561l-63 -311l112 4zM387 821.5q-29 -35.5 -58.5 -35.5t-57.5 9t-48.5 9t-43.5 -23l-60 32q40 85 93 85q20 0 50 -14t45 -14q28 0 52 32l60 -5q-3 -40 -32 -75.5z" />
    <glyph glyph-name="Adieresis" unicode="&#xc4;" horiz-adv-x="516" 
d="M353 10l-23 139l-149 -6l-38 -188l-140 12l179 725l185 -16l131 -678zM265 561l-63 -311l112 4zM227 900q11 -16 11 -58t-14 -64l-95 10q9 50 9 76t-1 44zM382 902q11 -16 11 -58t-14 -64l-95 10q9 50 9 76t-1 44z" />
    <glyph glyph-name="Aring" unicode="&#xc5;" horiz-adv-x="516" 
d="M353 10l-23 139l-149 -6l-38 -188l-140 12l179 725l185 -16l131 -678zM265 561l-63 -311l112 4zM244 794.5q11 -11.5 31.5 -11.5t35 19.5t14.5 41.5t-11 33t-31.5 11t-35 -19t-14.5 -41t11 -33.5zM360 765q-35 -37 -85.5 -37t-81 26.5t-30.5 70.5t35 81t85.5 37t81 -26.5
t30.5 -70.5t-35 -81z" />
    <glyph glyph-name="AE" unicode="&#xc6;" horiz-adv-x="667" 
d="M669 688v-123q-113 0 -210 -7q-4 -112 -5 -172q76 11 180 13l19 -110q-67 -1 -201 -15q0 -120 1 -173q87 7 208 30l17 -110q-85 -39 -201 -39l-154 14q-2 52 -4 152l-117 -5l-59 -188l-140 12l229 724l195 -17q122 14 242 14zM325 561l-95 -311l89 4q0 131 8 285z" />
    <glyph glyph-name="Ccedilla" unicode="&#xc7;" horiz-adv-x="482" 
d="M269 575q-44 0 -77 -108.5t-33 -192.5q0 -176 92 -176q26 0 45.5 22.5t28 46.5t20.5 66l127 -10q-26 -121 -76 -185.5t-139 -67.5q2 -18 8 -35q12 3 23 3q34 0 59.5 -21t25.5 -61.5t-33 -64t-102 -23.5t-126 43l18 45q69 -37 115 -37q17 0 29.5 7.5t12.5 20t-10 20.5
t-24.5 8t-28.5 -7l-28 3q1 58 17 102q-91 14 -139 93t-48 193q0 147 58 286q28 69 78.5 113.5t115.5 44.5q80 0 116 -53q18 -26 29.5 -53t16.5 -69q9 -67 11 -144l-129 12q0 129 -24 162q-11 17 -29 17z" />
    <glyph glyph-name="Egrave" unicode="&#xc8;" horiz-adv-x="447" 
d="M75 -4q-4 158 -4 299t16 367q171 26 334 26v-123q-113 0 -210 -7q-4 -112 -5 -172q76 11 180 13l19 -110q-67 -1 -201 -15q0 -120 1 -173q87 7 208 30l17 -110q-85 -39 -201 -39zM309 823l-45 -57q-98 50 -193 73l54 89q71 -31 184 -105z" />
    <glyph glyph-name="Eacute" unicode="&#xc9;" horiz-adv-x="447" 
d="M75 -4q-4 158 -4 299t16 367q171 26 334 26v-123q-113 0 -210 -7q-4 -112 -5 -172q76 11 180 13l19 -110q-67 -1 -201 -15q0 -120 1 -173q87 7 208 30l17 -110q-85 -39 -201 -39zM216 766l-45 57q113 74 184 105l54 -89q-95 -23 -193 -73z" />
    <glyph glyph-name="Ecircumflex" unicode="&#xca;" horiz-adv-x="447" 
d="M75 -4q-4 158 -4 299t16 367q171 26 334 26v-123q-113 0 -210 -7q-4 -112 -5 -172q76 11 180 13l19 -110q-67 -1 -201 -15q0 -120 1 -173q87 7 208 30l17 -110q-85 -39 -201 -39zM239 923l68 -5q31 -30 101 -115l-58 -44q-52 46 -81 70q-50 -35 -100 -79l-58 43
q72 81 128 130z" />
    <glyph glyph-name="Edieresis" unicode="&#xcb;" horiz-adv-x="447" 
d="M75 -4q-4 158 -4 299t16 367q171 26 334 26v-123q-113 0 -210 -7q-4 -112 -5 -172q76 11 180 13l19 -110q-67 -1 -201 -15q0 -120 1 -173q87 7 208 30l17 -110q-85 -39 -201 -39zM229 900q11 -16 11 -58t-14 -64l-95 10q9 50 9 76t-1 44zM384 902q11 -16 11 -58t-14 -64
l-95 10q9 50 9 76t-1 44z" />
    <glyph glyph-name="Igrave" unicode="&#xcc;" horiz-adv-x="289" 
d="M233 692q-9 -158 -9 -356t13 -361l-135 12q-13 204 -13 368.5t9 348.5zM226 823l-45 -57q-98 50 -193 73l54 89q71 -31 184 -105z" />
    <glyph glyph-name="Iacute" unicode="&#xcd;" horiz-adv-x="289" 
d="M233 692q-9 -158 -9 -356t13 -361l-135 12q-13 204 -13 368.5t9 348.5zM133 766l-45 57q113 74 184 105l54 -89q-95 -23 -193 -73z" />
    <glyph glyph-name="Icircumflex" unicode="&#xce;" horiz-adv-x="289" 
d="M233 692q-9 -158 -9 -356t13 -361l-135 12q-13 204 -13 368.5t9 348.5zM146 923l68 -5q31 -30 101 -115l-58 -44q-52 46 -81 70q-50 -35 -100 -79l-58 43q72 81 128 130z" />
    <glyph glyph-name="Idieresis" unicode="&#xcf;" horiz-adv-x="289" 
d="M233 692q-9 -158 -9 -356t13 -361l-135 12q-13 204 -13 368.5t9 348.5zM136 900q11 -16 11 -58t-14 -64l-95 10q9 50 9 76t-1 44zM291 902q11 -16 11 -58t-14 -64l-95 10q9 50 9 76t-1 44z" />
    <glyph glyph-name="Eth" unicode="&#xd0;" horiz-adv-x="512" 
d="M238 701q117 0 180.5 -92t63.5 -223q0 -101 -32 -190.5t-100 -150t-159 -60.5q-18 0 -136 14q10 159 13 290q-15 -1 -44 -1l-12 108q38 0 57 1q-1 134 -9 270q97 34 178 34zM216 107q46 0 91.5 81.5t45.5 176t-32.5 155.5t-77.5 61q-26 0 -47 -8l6 -168q44 0 79 -3
l4 -108q-39 3 -83 3q-2 -97 -6 -182q7 -8 20 -8z" />
    <glyph glyph-name="Ntilde" unicode="&#xd1;" horiz-adv-x="544" 
d="M500 704l1 -465q0 -115 -8 -247l-112 11q-129 293 -211 439q1 -148 1 -472l-117 13q-3 62 -3 120q0 242 27 564l133 -13q99 -273 178 -415q-6 302 -14 476zM401 821.5q-29 -35.5 -58.5 -35.5t-57.5 9t-48.5 9t-43.5 -23l-60 32q40 85 93 85q20 0 50 -14t45 -14
q28 0 52 32l60 -5q-3 -40 -32 -75.5z" />
    <glyph glyph-name="Ograve" unicode="&#xd2;" horiz-adv-x="521" 
d="M99.5 51.5q-65.5 85.5 -65.5 260t71.5 284.5t168.5 110t161.5 -86t64.5 -259t-72 -284t-167.5 -111t-161 85.5zM199 509.5q-32 -77.5 -32 -195t27.5 -174t68.5 -56.5t72.5 78t31.5 195.5t-26.5 173.5t-65.5 56q-44 0 -76 -77.5zM341 823l-45 -57q-98 50 -193 73l54 89
q71 -31 184 -105z" />
    <glyph glyph-name="Oacute" unicode="&#xd3;" horiz-adv-x="521" 
d="M99.5 51.5q-65.5 85.5 -65.5 260t71.5 284.5t168.5 110t161.5 -86t64.5 -259t-72 -284t-167.5 -111t-161 85.5zM199 509.5q-32 -77.5 -32 -195t27.5 -174t68.5 -56.5t72.5 78t31.5 195.5t-26.5 173.5t-65.5 56q-44 0 -76 -77.5zM248 766l-45 57q113 74 184 105l54 -89
q-95 -23 -193 -73z" />
    <glyph glyph-name="Ocircumflex" unicode="&#xd4;" horiz-adv-x="521" 
d="M99.5 51.5q-65.5 85.5 -65.5 260t71.5 284.5t168.5 110t161.5 -86t64.5 -259t-72 -284t-167.5 -111t-161 85.5zM199 509.5q-32 -77.5 -32 -195t27.5 -174t68.5 -56.5t72.5 78t31.5 195.5t-26.5 173.5t-65.5 56q-44 0 -76 -77.5zM251 923l68 -5q31 -30 101 -115l-58 -44
q-52 46 -81 70q-50 -35 -100 -79l-58 43q72 81 128 130z" />
    <glyph glyph-name="Otilde" unicode="&#xd5;" horiz-adv-x="521" 
d="M99.5 51.5q-65.5 85.5 -65.5 260t71.5 284.5t168.5 110t161.5 -86t64.5 -259t-72 -284t-167.5 -111t-161 85.5zM199 509.5q-32 -77.5 -32 -195t27.5 -174t68.5 -56.5t72.5 78t31.5 195.5t-26.5 173.5t-65.5 56q-44 0 -76 -77.5zM391 821.5q-29 -35.5 -58.5 -35.5t-57.5 9
t-48.5 9t-43.5 -23l-60 32q40 85 93 85q20 0 50 -14t45 -14q28 0 52 32l60 -5q-3 -40 -32 -75.5z" />
    <glyph glyph-name="Odieresis" unicode="&#xd6;" horiz-adv-x="521" 
d="M99.5 51.5q-65.5 85.5 -65.5 260t71.5 284.5t168.5 110t161.5 -86t64.5 -259t-72 -284t-167.5 -111t-161 85.5zM199 509.5q-32 -77.5 -32 -195t27.5 -174t68.5 -56.5t72.5 78t31.5 195.5t-26.5 173.5t-65.5 56q-44 0 -76 -77.5zM231 900q11 -16 11 -58t-14 -64l-95 10
q9 50 9 76t-1 44zM386 902q11 -16 11 -58t-14 -64l-95 10q9 50 9 76t-1 44z" />
    <glyph glyph-name="multiply" unicode="&#xd7;" horiz-adv-x="833" 
d="M142 96q148 157 194 205q-136 136 -207 221l96 62q78 -90 192 -202q129 128 229 204l72 -97q-99 -74 -215 -190q144 -138 210 -206l-85 -85q-69 75 -206 209q-155 -160 -205 -206z" />
    <glyph glyph-name="Oslash" unicode="&#xd8;" horiz-adv-x="521" 
d="M34 310q0 176 71.5 286t169 110t158.5 -84q48 56 92 104l64 -40q-59 -65 -118 -136q29 -79 29 -188q0 -174 -72 -285t-169 -111t-160 86q-67 -104 -91 -145l-77 29l130 190q-27 78 -27 184zM263 80q42 0 75 79.5t33 202.5q0 37 -3 67q-100 -124 -189 -256
q13 -46 35 -69.5t49 -23.5zM163 310q0 -33 1 -48q100 139 188 250q-26 79 -77 79q-45 0 -78.5 -78.5t-33.5 -202.5z" />
    <glyph glyph-name="Ugrave" unicode="&#xd9;" horiz-adv-x="539" 
d="M191 235q0 -52 23 -93t54.5 -41t50.5 28t27 74q14 81 14 187.5t-13 312.5l136 -14q14 -206 14 -280t-2 -103.5t-8 -68.5t-16 -73t-27 -68t-40 -58q-51 -55 -138.5 -55t-149.5 78t-62 174q0 211 23 450l136 -13q-22 -219 -22 -437zM349 823l-45 -57q-98 50 -193 73l54 89
q71 -31 184 -105z" />
    <glyph glyph-name="Uacute" unicode="&#xda;" horiz-adv-x="539" 
d="M191 235q0 -52 23 -93t54.5 -41t50.5 28t27 74q14 81 14 187.5t-13 312.5l136 -14q14 -206 14 -280t-2 -103.5t-8 -68.5t-16 -73t-27 -68t-40 -58q-51 -55 -138.5 -55t-149.5 78t-62 174q0 211 23 450l136 -13q-22 -219 -22 -437zM256 766l-45 57q113 74 184 105l54 -89
q-95 -23 -193 -73z" />
    <glyph glyph-name="Ucircumflex" unicode="&#xdb;" horiz-adv-x="539" 
d="M191 235q0 -52 23 -93t54.5 -41t50.5 28t27 74q14 81 14 187.5t-13 312.5l136 -14q14 -206 14 -280t-2 -103.5t-8 -68.5t-16 -73t-27 -68t-40 -58q-51 -55 -138.5 -55t-149.5 78t-62 174q0 211 23 450l136 -13q-22 -219 -22 -437zM249 923l68 -5q31 -30 101 -115l-58 -44
q-52 46 -81 70q-50 -35 -100 -79l-58 43q72 81 128 130z" />
    <glyph glyph-name="Udieresis" unicode="&#xdc;" horiz-adv-x="539" 
d="M191 235q0 -52 23 -93t54.5 -41t50.5 28t27 74q14 81 14 187.5t-13 312.5l136 -14q14 -206 14 -280t-2 -103.5t-8 -68.5t-16 -73t-27 -68t-40 -58q-51 -55 -138.5 -55t-149.5 78t-62 174q0 211 23 450l136 -13q-22 -219 -22 -437zM249 900q11 -16 11 -58t-14 -64l-95 10
q9 50 9 76t-1 44zM404 902q11 -16 11 -58t-14 -64l-95 10q9 50 9 76t-1 44z" />
    <glyph glyph-name="Yacute" unicode="&#xdd;" horiz-adv-x="444" 
d="M161 191v77q-131 277 -145 399l125 -12q22 -112 92 -268q83 181 129 327l116 -11q-74 -211 -178 -429q-2 -90 -2 -158t4 -137l-132 14q-9 93 -9 198zM210 766l-45 57q113 74 184 105l54 -89q-95 -23 -193 -73z" />
    <glyph glyph-name="Thorn" unicode="&#xde;" horiz-adv-x="465" 
d="M249 594q87 0 156.5 -65.5t69.5 -165t-73 -172t-190 -106.5q0 -15 -0.5 -22t5.5 -88l-135 12q-13 204 -13 368.5t9 348.5l135 -12q-4 -49 -6 -101q21 3 42 3zM249 477q-21 0 -45 -12q-1 -38 -1 -102.5t2 -162.5q61 20 97 63t36 95.5t-27.5 85.5t-61.5 33z" />
    <glyph glyph-name="germandbls" unicode="&#xdf;" horiz-adv-x="475" 
d="M72 307q-32 -5 -36 -7l-21 90q10 3 56 11v44q0 135 46 212.5t123 77.5t121.5 -60t44.5 -162q0 -54 -52 -131q-17 -26 -17 -36q0 -39 29 -70q65 -65 76 -104q5 -20 5 -42q0 -71 -36.5 -111t-83.5 -40q-67 0 -102 40l44 71q14 -9 29 -9t23.5 11.5t8.5 30.5q0 36 -22.5 55.5
t-31.5 28.5t-24 28q-28 35 -28 87t37 106t37 80q0 53 -16 85t-44 32q-25 0 -40 -48t-15 -132q0 -267 6 -352t6 -110l-112 12q-8 138 -11 312z" />
    <glyph glyph-name="agrave" unicode="&#xe0;" horiz-adv-x="390" 
d="M103 427.5q42 54.5 110 54.5t100.5 -56.5t32.5 -160.5t-12 -287l-84 7l-8 32q-47 -27 -96 -27t-81 32.5t-32 93.5t60.5 105t139.5 46v27q0 79 -38 79q-19 0 -34.5 -26.5t-22.5 -60.5l-92 9q15 78 57 132.5zM135 110q0 -32 38 -32q26 0 55 12l2 84q-47 -4 -71 -23.5
t-24 -40.5zM287 572l-45 -57q-98 50 -193 73l54 89q71 -31 184 -105z" />
    <glyph glyph-name="aacute" unicode="&#xe1;" horiz-adv-x="390" 
d="M103 427.5q42 54.5 110 54.5t100.5 -56.5t32.5 -160.5t-12 -287l-84 7l-8 32q-47 -27 -96 -27t-81 32.5t-32 93.5t60.5 105t139.5 46v27q0 79 -38 79q-19 0 -34.5 -26.5t-22.5 -60.5l-92 9q15 78 57 132.5zM135 110q0 -32 38 -32q26 0 55 12l2 84q-47 -4 -71 -23.5
t-24 -40.5zM194 515l-45 57q113 74 184 105l54 -89q-95 -23 -193 -73z" />
    <glyph glyph-name="acircumflex" unicode="&#xe2;" horiz-adv-x="390" 
d="M103 427.5q42 54.5 110 54.5t100.5 -56.5t32.5 -160.5t-12 -287l-84 7l-8 32q-47 -27 -96 -27t-81 32.5t-32 93.5t60.5 105t139.5 46v27q0 79 -38 79q-19 0 -34.5 -26.5t-22.5 -60.5l-92 9q15 78 57 132.5zM135 110q0 -32 38 -32q26 0 55 12l2 84q-47 -4 -71 -23.5
t-24 -40.5zM187 672l68 -5q31 -30 101 -115l-58 -44q-52 46 -81 70q-50 -35 -100 -79l-58 43q72 81 128 130z" />
    <glyph glyph-name="atilde" unicode="&#xe3;" horiz-adv-x="390" 
d="M103 427.5q42 54.5 110 54.5t100.5 -56.5t32.5 -160.5t-12 -287l-84 7l-8 32q-47 -27 -96 -27t-81 32.5t-32 93.5t60.5 105t139.5 46v27q0 79 -38 79q-19 0 -34.5 -26.5t-22.5 -60.5l-92 9q15 78 57 132.5zM135 110q0 -32 38 -32q26 0 55 12l2 84q-47 -4 -71 -23.5
t-24 -40.5zM337 570.5q-29 -35.5 -58.5 -35.5t-57.5 9t-48.5 9t-43.5 -23l-60 32q40 85 93 85q20 0 50 -14t45 -14q28 0 52 32l60 -5q-3 -40 -32 -75.5z" />
    <glyph glyph-name="adieresis" unicode="&#xe4;" horiz-adv-x="390" 
d="M103 427.5q42 54.5 110 54.5t100.5 -56.5t32.5 -160.5t-12 -287l-84 7l-8 32q-47 -27 -96 -27t-81 32.5t-32 93.5t60.5 105t139.5 46v27q0 79 -38 79q-19 0 -34.5 -26.5t-22.5 -60.5l-92 9q15 78 57 132.5zM135 110q0 -32 38 -32q26 0 55 12l2 84q-47 -4 -71 -23.5
t-24 -40.5zM177 649q11 -16 11 -58t-14 -64l-95 10q9 49 9 75.5t-1 44.5zM332 651q11 -16 11 -58t-14 -64l-95 10q9 49 9 75.5t-1 44.5z" />
    <glyph glyph-name="aring" unicode="&#xe5;" horiz-adv-x="391" 
d="M103 427.5q42 54.5 110 54.5t100.5 -56.5t32.5 -160.5t-12 -287l-84 7l-8 32q-47 -27 -96 -27t-81 32.5t-32 93.5t60.5 105t139.5 46v27q0 79 -38 79q-19 0 -34.5 -26.5t-22.5 -60.5l-92 9q15 78 57 132.5zM135 110q0 -32 38 -32q26 0 55 12l2 84q-47 -4 -71 -23.5
t-24 -40.5zM180 577.5q11 -11.5 31.5 -11.5t35 19.5t14.5 41.5t-11 33t-31.5 11t-35 -19t-14.5 -41t11 -33.5zM296 548q-35 -37 -85.5 -37t-81 26.5t-30.5 70.5t35 81t85.5 37t81 -26.5t30.5 -70.5t-35 -81z" />
    <glyph glyph-name="ae" unicode="&#xe6;" horiz-adv-x="544" 
d="M103 427.5q42 54.5 102.5 54.5t95.5 -45q40 40 98 40q55 0 93 -41q24 -26 40 -94q12 -49 12 -142q-80 -22 -207 -40q3 -40 14 -64t26 -24q38 0 81 73l76 -45q-19 -33 -36.5 -56t-52.5 -44t-84 -21t-88 45q-43 -34 -109.5 -34t-98.5 32.5t-32 93.5t60.5 105t139.5 46v27
q0 79 -38 79q-19 0 -34.5 -26.5t-22.5 -60.5l-92 9q15 78 57 132.5zM399 379q-22 0 -39.5 -44t-20.5 -102q53 11 92 21q0 125 -32 125zM135 110q0 -32 38 -32q26 0 55 12l2 84q-47 -4 -71 -23.5t-24 -40.5z" />
    <glyph glyph-name="ccedilla" unicode="&#xe7;" horiz-adv-x="354" 
d="M232 256q2 14 2 36t-9 45t-23 23q-28 0 -40.5 -64.5t-12.5 -118.5q0 -91 37 -91q30 0 85 105l74 -53q-56 -152 -151 -159q0 -20 8 -44q12 3 23 3q34 0 59.5 -21t25.5 -61.5t-33 -64t-102 -23.5t-126 43l18 45q69 -37 115 -37q17 0 29.5 7.5t12.5 20t-10 20.5t-24.5 8
t-28.5 -7l-28 3q1 64 21 111q-53 11 -87.5 55.5t-34.5 123.5q0 98 32 195q18 53 53.5 87t90.5 34t91.5 -56t36.5 -124q0 -29 -9 -50z" />
    <glyph glyph-name="egrave" unicode="&#xe8;" horiz-adv-x="367" 
d="M184 72q38 0 81 73l76 -45q-19 -33 -36.5 -56t-52.5 -44t-78 -21q-63 0 -106 53.5t-43 144.5q0 104 37 194q20 47 57.5 76.5t77 29.5t63.5 -12.5t38.5 -28t25.5 -45.5t15.5 -49t7.5 -55q4 -48 4 -87q-80 -22 -207 -40q3 -40 14 -64t26 -24zM206 379q-22 0 -39.5 -44
t-20.5 -102q53 11 92 21q0 125 -32 125zM278 572l-45 -57q-98 50 -193 73l54 89q71 -31 184 -105z" />
    <glyph glyph-name="eacute" unicode="&#xe9;" horiz-adv-x="367" 
d="M184 72q38 0 81 73l76 -45q-19 -33 -36.5 -56t-52.5 -44t-78 -21q-63 0 -106 53.5t-43 144.5q0 104 37 194q20 47 57.5 76.5t77 29.5t63.5 -12.5t38.5 -28t25.5 -45.5t15.5 -49t7.5 -55q4 -48 4 -87q-80 -22 -207 -40q3 -40 14 -64t26 -24zM206 379q-22 0 -39.5 -44
t-20.5 -102q53 11 92 21q0 125 -32 125zM185 515l-45 57q113 74 184 105l54 -89q-95 -23 -193 -73z" />
    <glyph glyph-name="ecircumflex" unicode="&#xea;" horiz-adv-x="367" 
d="M184 72q38 0 81 73l76 -45q-19 -33 -36.5 -56t-52.5 -44t-78 -21q-63 0 -106 53.5t-43 144.5q0 104 37 194q20 47 57.5 76.5t77 29.5t63.5 -12.5t38.5 -28t25.5 -45.5t15.5 -49t7.5 -55q4 -48 4 -87q-80 -22 -207 -40q3 -40 14 -64t26 -24zM206 379q-22 0 -39.5 -44
t-20.5 -102q53 11 92 21q0 125 -32 125zM178 672l68 -5q31 -30 101 -115l-58 -44q-52 46 -81 70q-50 -35 -100 -79l-58 43q72 81 128 130z" />
    <glyph glyph-name="edieresis" unicode="&#xeb;" horiz-adv-x="367" 
d="M184 72q38 0 81 73l76 -45q-19 -33 -36.5 -56t-52.5 -44t-78 -21q-63 0 -106 53.5t-43 144.5q0 104 37 194q20 47 57.5 76.5t77 29.5t63.5 -12.5t38.5 -28t25.5 -45.5t15.5 -49t7.5 -55q4 -48 4 -87q-80 -22 -207 -40q3 -40 14 -64t26 -24zM206 379q-22 0 -39.5 -44
t-20.5 -102q53 11 92 21q0 125 -32 125zM168 649q11 -16 11 -58t-14 -64l-95 10q9 49 9 75.5t-1 44.5zM323 651q11 -16 11 -58t-14 -64l-95 10q9 49 9 75.5t-1 44.5z" />
    <glyph glyph-name="igrave" unicode="&#xec;" horiz-adv-x="236" 
d="M69 477l114 -11v-480l-114 11v480zM200 572l-45 -57q-98 50 -193 73l54 89q71 -31 184 -105z" />
    <glyph glyph-name="iacute" unicode="&#xed;" horiz-adv-x="236" 
d="M69 477l114 -11v-480l-114 11v480zM107 515l-45 57q113 74 184 105l54 -89q-95 -23 -193 -73z" />
    <glyph glyph-name="icircumflex" unicode="&#xee;" horiz-adv-x="236" 
d="M69 477l114 -11v-480l-114 11v480zM100 672l68 -5q31 -30 101 -115l-58 -44q-52 46 -81 70q-50 -35 -100 -79l-58 43q72 81 128 130z" />
    <glyph glyph-name="idieresis" unicode="&#xef;" horiz-adv-x="236" 
d="M69 477l114 -11v-480l-114 11v480zM90 649q11 -16 11 -58t-14 -64l-95 10q9 49 9 75.5t-1 44.5zM245 651q11 -16 11 -58t-14 -64l-95 10q9 49 9 75.5t-1 44.5z" />
    <glyph glyph-name="eth" unicode="&#xf0;" horiz-adv-x="368" 
d="M371 280q0 -134 -61 -222t-138.5 -88t-116 60t-38.5 149q0 52 16 115t51 114t77 51q26 0 57 -12q-20 46 -47 85q-65 -27 -117 -58l-23 57q47 27 100 52q-23 26 -47 47l88 62q41 -48 56 -68q45 17 91 30l32 -63q-51 -11 -83 -22q103 -155 103 -289zM256 280q0 33 -6 66
q-38 18 -54 18q-27 0 -45.5 -64.5t-18.5 -120.5q0 -99 46 -99q30 0 54 57t24 143z" />
    <glyph glyph-name="ntilde" unicode="&#xf1;" horiz-adv-x="424" 
d="M257 476q132 0 132 -220q0 -116 -13 -246l-117 11q11 114 11 230.5t-33 116.5q-16 0 -41 -80.5t-31 -157.5q2 -41 8 -148l-117 11q-11 141 -11 248t6 192l74 -8q2 -8 15 -65q58 116 117 116zM339 570.5q-29 -35.5 -58.5 -35.5t-57.5 9t-48.5 9t-43.5 -23l-60 32
q40 85 93 85q21 0 51 -14t44 -14q28 0 52 32l60 -5q-3 -40 -32 -75.5z" />
    <glyph glyph-name="ograve" unicode="&#xf2;" horiz-adv-x="368" 
d="M141 180q0 -113 50 -113q22 0 37 63.5t15 121.5q0 128 -42 128q-27 0 -43.5 -68.5t-16.5 -131.5zM24 189q0 93 38 182q20 45 56.5 73.5t81.5 28.5t77.5 -20.5t49.5 -54.5q33 -67 33 -146q0 -109 -44.5 -193.5t-124.5 -84.5q-167 0 -167 215zM267 572l-45 -57
q-98 50 -193 73l54 89q71 -31 184 -105z" />
    <glyph glyph-name="oacute" unicode="&#xf3;" horiz-adv-x="368" 
d="M141 180q0 -113 50 -113q22 0 37 63.5t15 121.5q0 128 -42 128q-27 0 -43.5 -68.5t-16.5 -131.5zM24 189q0 93 38 182q20 45 56.5 73.5t81.5 28.5t77.5 -20.5t49.5 -54.5q33 -67 33 -146q0 -109 -44.5 -193.5t-124.5 -84.5q-167 0 -167 215zM174 515l-45 57
q113 74 184 105l54 -89q-95 -23 -193 -73z" />
    <glyph glyph-name="ocircumflex" unicode="&#xf4;" horiz-adv-x="368" 
d="M141 180q0 -113 50 -113q22 0 37 63.5t15 121.5q0 128 -42 128q-27 0 -43.5 -68.5t-16.5 -131.5zM24 189q0 93 38 182q20 45 56.5 73.5t81.5 28.5t77.5 -20.5t49.5 -54.5q33 -67 33 -146q0 -109 -44.5 -193.5t-124.5 -84.5q-167 0 -167 215zM184 672l68 -5
q31 -30 101 -115l-58 -44q-52 46 -81 70q-50 -35 -100 -79l-58 43q72 81 128 130z" />
    <glyph glyph-name="otilde" unicode="&#xf5;" horiz-adv-x="368" 
d="M141 180q0 -113 50 -113q22 0 37 63.5t15 121.5q0 128 -42 128q-27 0 -43.5 -68.5t-16.5 -131.5zM24 189q0 93 38 182q20 45 56.5 73.5t81.5 28.5t77.5 -20.5t49.5 -54.5q33 -67 33 -146q0 -109 -44.5 -193.5t-124.5 -84.5q-167 0 -167 215zM317 570.5
q-29 -35.5 -58.5 -35.5t-57.5 9t-48.5 9t-43.5 -23l-60 32q40 85 93 85q20 0 50 -14t45 -14q28 0 52 32l60 -5q-3 -40 -32 -75.5z" />
    <glyph glyph-name="odieresis" unicode="&#xf6;" horiz-adv-x="368" 
d="M141 180q0 -113 50 -113q22 0 37 63.5t15 121.5q0 128 -42 128q-27 0 -43.5 -68.5t-16.5 -131.5zM24 189q0 93 38 182q20 45 56.5 73.5t81.5 28.5t77.5 -20.5t49.5 -54.5q33 -67 33 -146q0 -109 -44.5 -193.5t-124.5 -84.5q-167 0 -167 215zM157 649q11 -16 11 -58
t-14 -64l-95 10q9 49 9 75.5t-1 44.5zM312 651q11 -16 11 -58t-14 -64l-95 10q9 49 9 75.5t-1 44.5z" />
    <glyph glyph-name="divide" unicode="&#xf7;" horiz-adv-x="833" 
d="M123 355l356 8q149 0 241 -11l-18 -120q-81 11 -213 11l-366 -8v120zM476 168q10 -38 10 -81t-13 -65l-130 10q8 38 8 80t-1 67zM476 565q10 -38 10 -81t-13 -65l-130 10q8 38 8 80t-1 67z" />
    <glyph glyph-name="oslash" unicode="&#xf8;" horiz-adv-x="368" 
d="M46 62q-22 49 -22 110t9.5 107.5t29 91.5t56 73.5t82.5 28.5q63 0 102 -42q32 41 74 90l40 -34q-50 -57 -84 -101q27 -55 27 -134q0 -109 -44.5 -193.5t-120.5 -84.5t-118 41l-54 -86l-46 25zM191 63q23 0 39.5 66t16.5 140q-57 -81 -104 -154q11 -52 48 -52zM201 384
q-28 0 -45 -64t-19 -130q57 86 102 146q-12 48 -38 48z" />
    <glyph glyph-name="ugrave" unicode="&#xf9;" horiz-adv-x="420" 
d="M378 469l-2 -158q0 -223 8 -328l-99 10q-3 42 -13 85q-55 -81 -110.5 -81t-88.5 38t-33 105q0 130 19 310l116 -11q-18 -171 -18 -284q0 -51 32 -51q15 0 36.5 41t34.5 99q-1 22 -1 52t3 183zM287 572l-45 -57q-98 50 -193 73l54 89q71 -31 184 -105z" />
    <glyph glyph-name="uacute" unicode="&#xfa;" horiz-adv-x="420" 
d="M378 469l-2 -158q0 -223 8 -328l-99 10q-3 42 -13 85q-55 -81 -110.5 -81t-88.5 38t-33 105q0 130 19 310l116 -11q-18 -171 -18 -284q0 -51 32 -51q15 0 36.5 41t34.5 99q-1 22 -1 52t3 183zM194 515l-45 57q113 74 184 105l54 -89q-95 -23 -193 -73z" />
    <glyph glyph-name="ucircumflex" unicode="&#xfb;" horiz-adv-x="420" 
d="M378 469l-2 -158q0 -223 8 -328l-99 10q-3 42 -13 85q-55 -81 -110.5 -81t-88.5 38t-33 105q0 130 19 310l116 -11q-18 -171 -18 -284q0 -51 32 -51q15 0 36.5 41t34.5 99q-1 22 -1 52t3 183zM187 672l68 -5q31 -30 101 -115l-58 -44q-52 46 -81 70q-50 -35 -100 -79
l-58 43q72 81 128 130z" />
    <glyph glyph-name="udieresis" unicode="&#xfc;" horiz-adv-x="420" 
d="M378 469l-2 -158q0 -223 8 -328l-99 10q-3 42 -13 85q-55 -81 -110.5 -81t-88.5 38t-33 105q0 130 19 310l116 -11q-18 -171 -18 -284q0 -51 32 -51q15 0 36.5 41t34.5 99q-1 22 -1 52t3 183zM177 649q11 -16 11 -58t-14 -64l-95 10q9 49 9 75.5t-1 44.5zM332 651
q11 -16 11 -58t-14 -64l-95 10q9 49 9 75.5t-1 44.5z" />
    <glyph glyph-name="yacute" unicode="&#xfd;" horiz-adv-x="376" 
d="M287 501l96 -56q-83 -257 -170 -682l-110 10q16 79 53 218q-96 184 -121 464l112 -11q15 -184 48 -314q46 214 92 371zM168 515l-45 57q113 74 184 105l54 -89q-95 -23 -193 -73z" />
    <glyph glyph-name="thorn" unicode="&#xfe;" horiz-adv-x="410" 
d="M305 471q48 0 71.5 -53t23.5 -125.5t-15.5 -143.5t-49 -120.5t-76.5 -49.5t-77 27q2 -145 7 -251l-117 12q-9 367 -9 564.5t11 401.5l114 -10q-12 -197 -12 -358q67 106 129 106zM176 194l1 -78q12 -17 21 -23.5t27 -6.5q25 0 44 55.5t19 105.5t-5.5 72t-23.5 22
q-38 0 -83 -147z" />
    <glyph glyph-name="ydieresis" unicode="&#xff;" horiz-adv-x="376" 
d="M287 501l96 -56q-83 -257 -170 -682l-110 10q16 79 53 218q-96 184 -121 464l112 -11q15 -184 48 -314q46 214 92 371zM181 649q11 -16 11 -58t-14 -64l-95 10q9 49 9 75.5t-1 44.5zM336 651q11 -16 11 -58t-14 -64l-95 10q9 49 9 75.5t-1 44.5z" />
    <glyph glyph-name="Cacute" unicode="&#x106;" horiz-adv-x="482" 
d="M269 575q-44 0 -77 -108.5t-33 -192.5q0 -176 92 -176q26 0 45.5 22.5t28 46.5t20.5 66l127 -10q-26 -123 -77.5 -188t-143.5 -65q-108 0 -166.5 81.5t-58.5 207.5q0 147 58 286q28 69 78.5 113.5t115.5 44.5q80 0 116 -53q18 -26 29.5 -53t16.5 -69q9 -67 11 -144
l-129 12q0 129 -24 162q-11 17 -29 17zM255 766l-45 57q113 74 184 105l54 -89q-95 -23 -193 -73z" />
    <glyph glyph-name="cacute" unicode="&#x107;" horiz-adv-x="354" 
d="M232 256q2 14 2 36t-9 45t-23 23q-28 0 -40.5 -64.5t-12.5 -118.5q0 -91 37 -91q30 0 85 105l74 -53q-27 -73 -67.5 -116t-97.5 -43t-102.5 45t-45.5 137q0 98 32 195q18 53 53.5 87t90.5 34t91.5 -56t36.5 -124q0 -29 -9 -50zM176 515l-45 57q113 74 184 105l54 -89
q-95 -23 -193 -73z" />
    <glyph glyph-name="Ccaron" unicode="&#x10c;" horiz-adv-x="482" 
d="M269 575q-44 0 -77 -108.5t-33 -192.5q0 -176 92 -176q26 0 45.5 22.5t28 46.5t20.5 66l127 -10q-26 -123 -77.5 -188t-143.5 -65q-108 0 -166.5 81.5t-58.5 207.5q0 147 58 286q28 69 78.5 113.5t115.5 44.5q80 0 116 -53q18 -26 29.5 -53t16.5 -69q9 -67 11 -144
l-129 12q0 129 -24 162q-11 17 -29 17zM301 770l-68 5q-31 30 -101 115l58 44q52 -46 81 -70q50 35 100 79l58 -43q-72 -81 -128 -130z" />
    <glyph glyph-name="ccaron" unicode="&#x10d;" horiz-adv-x="354" 
d="M232 256q2 14 2 36t-9 45t-23 23q-28 0 -40.5 -64.5t-12.5 -118.5q0 -91 37 -91q30 0 85 105l74 -53q-27 -73 -67.5 -116t-97.5 -43t-102.5 45t-45.5 137q0 98 32 195q18 53 53.5 87t90.5 34t91.5 -56t36.5 -124q0 -29 -9 -50zM224 519l-68 5q-31 30 -101 115l58 44
q52 -46 81 -70q50 35 100 79l58 -43q-72 -81 -128 -130z" />
    <glyph glyph-name="dslash" unicode="&#x111;" horiz-adv-x="431" 
d="M250 637l-2 97l119 -10v-87q30 0 84 -2l4 -88q-55 6 -88 7v-34q0 -240 -16 -534l-89 8q-3 40 -6 94q-43 -86 -93 -86q-77 0 -107 48t-30 139.5t39.5 189.5t89.5 98q45 0 95 -24l1 100q-18 -1 -54 -5q-77 -7 -118 -7l-12 89zM253 360q-25 19 -49.5 19t-42.5 -64.5
t-18 -134.5t34 -70q13 0 35 43.5t40 110.5z" />
    <glyph glyph-name="Gbreve" unicode="&#x11e;" horiz-adv-x="498" 
d="M333 397q4 20 4 65.5t-15 84t-44 38.5q-35 0 -68 -90.5t-33 -194t20 -162t59 -58.5t59 36t30 106q-36 0 -77 -7l-21 99q91 6 228 22q6 -52 6 -95t-25.5 -107t-76 -113t-110.5 -49q-104 0 -166.5 81t-62.5 229q0 109 27 204t80 156t121 61q66 0 124 -48q30 -25 48.5 -71.5
t18.5 -97.5t-9 -99zM235 860q13 -16 36.5 -16t42.5 20t19 48l75 -6q0 -52 -42 -93t-97.5 -41t-88.5 37t-33 97l75 -6q0 -24 13 -40z" />
    <glyph glyph-name="gbreve" unicode="&#x11f;" horiz-adv-x="404" 
d="M193 -134q31 0 50 63.5t19 157.5q-53 -95 -109.5 -95t-91 38.5t-34.5 117t27 156t66.5 124t75.5 46.5q63 0 116 -51l70 -10q-13 -65 -13 -199.5t-7.5 -198t-24.5 -124.5t-50 -97t-87 -36t-103 43.5t-79 104.5l84 36q39 -76 91 -76zM221 372q-25 0 -50.5 -72t-25.5 -153
q0 -31 8.5 -47t19 -16t27.5 20t36.5 64t28.5 97l2 76q-29 31 -46 31zM200 609q13 -16 36.5 -16t42.5 20t19 48l75 -6q0 -52 -42 -93t-97.5 -41t-88.5 37t-33 97l75 -6q0 -24 13 -40z" />
    <glyph glyph-name="hbar" unicode="&#x127;" horiz-adv-x="425" 
d="M63 417l-1 121q-19 -1 -55 -1l-12 88q43 0 65 2l-4 94l117 -11l3 -76h13q29 0 55 -3l4 -88q-30 3 -59 3h-10q2 -92 2 -139q46 57 90.5 57t72.5 -30q49 -52 49 -132q0 -145 -11 -303l-116 11q7 147 7 289q0 53 -27 53q-32 0 -69 -140q-2 -100 -10 -227l-117 11
q13 172 13 421z" />
    <glyph glyph-name="Itilde" unicode="&#x128;" horiz-adv-x="289" 
d="M233 692q-9 -158 -9 -356t13 -361l-135 12q-13 204 -13 368.5t9 348.5zM276 792.5q-29 -35.5 -58.5 -35.5t-57.5 9t-48.5 9t-43.5 -23l-60 32q40 85 93 85q21 0 51 -14t44 -14q28 0 52 32l60 -5q-3 -40 -32 -75.5z" />
    <glyph glyph-name="itilde" unicode="&#x129;" horiz-adv-x="236" 
d="M69 477l114 -11v-480l-114 11v480zM236 570.5q-29 -35.5 -58.5 -35.5t-57.5 9t-48.5 9t-43.5 -23l-60 32q40 85 93 85q21 0 51 -14t44 -14q28 0 52 32l60 -5q-3 -40 -32 -75.5z" />
    <glyph glyph-name="Idot" unicode="&#x130;" horiz-adv-x="289" 
d="M233 692q-9 -158 -9 -356t13 -361l-135 12q-13 204 -13 368.5t9 348.5zM222 901q11 -16 11 -56.5t-14 -64.5l-110 10q9 50 9 76t-1 44z" />
    <glyph glyph-name="dotlessi" unicode="&#x131;" horiz-adv-x="236" 
d="M69 477l114 -11v-480l-114 11v480z" />
    <glyph glyph-name="IJ" unicode="&#x132;" horiz-adv-x="679" 
d="M233 692q-9 -158 -9 -356t13 -361l-135 12q-13 204 -13 368.5t9 348.5zM397 229q-4 -20 -4 -51.5t13.5 -58.5t35.5 -27q30 0 43.5 46.5t13.5 101.5q0 230 -18 461l141 -12q14 -180 14 -449q0 -90 -39 -172q-20 -43 -56.5 -70.5t-83.5 -27.5q-84 0 -135 58.5t-51 145.5
q0 30 8 67z" />
    <glyph glyph-name="ij" unicode="&#x133;" horiz-adv-x="488" 
d="M69 477l114 -11v-480l-114 11v480zM77 653l112 -13l-10 -112l-112 14zM439 -5q0 -115 -39 -177.5t-94 -62.5q-24 0 -59.5 19t-61.5 51l35 77q39 -30 58.5 -30t34 29.5t14.5 83.5q0 341 -5 483l108 -11q9 -151 9 -462zM328 653l112 -13l-10 -112l-112 14z" />
    <glyph glyph-name="Jcircumflex" unicode="&#x134;" horiz-adv-x="410" 
d="M128 229q-4 -20 -4 -51.5t13.5 -58.5t35.5 -27q30 0 43.5 46.5t13.5 101.5q0 230 -18 461l141 -12q14 -180 14 -449q0 -90 -39 -172q-20 -43 -56.5 -70.5t-83.5 -27.5q-84 0 -135 58.5t-51 145.5q0 30 8 67zM245 894l68 -5q31 -30 101 -115l-58 -44q-52 46 -81 70
q-50 -35 -100 -79l-58 43q72 81 128 130z" />
    <glyph glyph-name="jcircumflex" unicode="&#x135;" horiz-adv-x="252" 
d="M203 -5q0 -115 -33.5 -177.5t-79.5 -62.5q-27 0 -69 22t-72 58l35 77q39 -30 58.5 -30t34 27t14.5 76q0 341 -5 483l108 -11q9 -151 9 -462zM99 672l68 -5q31 -30 101 -115l-58 -44q-52 46 -81 70q-50 -35 -100 -79l-58 43q72 81 128 130z" />
    <glyph glyph-name="kcommaaccent" unicode="&#x137;" horiz-adv-x="410" 
d="M63 -8q-4 104 -4 308t15 431l117 -9q-15 -245 -15 -472q104 127 156 247l80 -70q-45 -105 -120 -208q78 -91 124 -170l-76 -72q-54 84 -164 199q0 -111 4 -195zM175 -61l113 -31q-7 -36 -27.5 -69.5t-60.5 -84.5l-52 8q21 102 27 177z" />
    <glyph glyph-name="kgreenlandic" unicode="&#x138;" horiz-adv-x="410" 
d="M63 -8q-4 104 -4 239.5t15 249.5l117 -9q-15 -120 -15 -222q104 127 156 247l80 -70q-45 -105 -120 -208q78 -91 124 -170l-76 -72q-54 84 -164 199q0 -111 4 -195z" />
    <glyph glyph-name="Ldotaccent" unicode="&#x13f;" horiz-adv-x="439" 
d="M85 6q-13 206 -13 377.5t11 311.5l133 -12q-15 -172 -15 -329t5 -231q36 5 177 20l20 -116q-75 -9 -212 -30zM416 412q11 -16 11 -56.5t-14 -64.5l-110 10q9 49 9 75.5t-1 44.5z" />
    <glyph glyph-name="ldot" unicode="&#x140;" horiz-adv-x="496" 
d="M196 722q-15 -253 -15 -456t5 -285l-118 11q-4 104 -4 295.5t15 443.5zM351 357q11 -16 11 -56.5t-14 -64.5l-110 10q9 49 9 75.5t-1 44.5z" />
    <glyph glyph-name="Lslash" unicode="&#x141;" horiz-adv-x="397" 
d="M72 385q0 170 11 310l133 -12q-11 -133 -14 -245q57 42 123 81l57 -64q-87 -45 -181 -115q0 -145 5 -217q36 5 177 20l20 -116q-75 -9 -212 -30l-106 9q-8 132 -11 240q-24 -21 -46 -45l-45 60q46 47 89 84v40z" />
    <glyph glyph-name="lslash" unicode="&#x142;" horiz-adv-x="271" 
d="M181 235q0 -172 5 -254l-118 11q-4 104 -4 243v32l-36 -36l-45 60q41 41 82 78q3 185 14 362l117 -9q-8 -124 -13 -288q35 22 72 45l57 -64q-62 -32 -131 -79v-101z" />
    <glyph glyph-name="Nacute" unicode="&#x143;" horiz-adv-x="544" 
d="M500 704l1 -465q0 -115 -8 -247l-112 11q-129 293 -211 439q1 -148 1 -472l-117 13q-3 62 -3 120q0 242 27 564l133 -13q99 -273 178 -415q-6 302 -14 476zM218 737l-45 57q113 74 184 105l54 -89q-95 -23 -193 -73z" />
    <glyph glyph-name="nacute" unicode="&#x144;" horiz-adv-x="424" 
d="M257 476q132 0 132 -220q0 -116 -13 -246l-117 11q11 114 11 230.5t-33 116.5q-16 0 -41 -80.5t-31 -157.5q2 -41 8 -148l-117 11q-11 141 -11 248t6 192l74 -8q2 -8 15 -65q58 116 117 116zM148 515l-45 57q113 74 184 105l54 -89q-95 -23 -193 -73z" />
    <glyph glyph-name="OE" unicode="&#x152;" horiz-adv-x="705" 
d="M263 -34q-98 0 -163.5 85.5t-65.5 260t71.5 284.5t169.5 110q68 0 120 -43q166 25 324 25v-123q-119 0 -220 -7q-4 -112 -5 -172q80 11 190 13l19 -110q-70 -1 -211 -15q0 -120 1 -173q90 7 218 30l17 -110q-85 -39 -201 -39l-154 14q0 2 -0.5 7t-0.5 7q-53 -44 -109 -44
zM199 509.5q-32 -77.5 -32 -195t27.5 -174t68.5 -56.5t72.5 78t31.5 195.5t-26.5 173.5t-65.5 56q-44 0 -76 -77.5z" />
    <glyph glyph-name="oe" unicode="&#x153;" horiz-adv-x="559" 
d="M118.5 444.5q36.5 28.5 90 28.5t93.5 -42q43 46 104 46q55 0 92 -41q25 -26 42 -94q11 -49 11 -142q-80 -22 -207 -40q3 -40 14 -64t26 -24q38 0 81 73l76 -45q-19 -33 -36.5 -56t-52.5 -44t-82 -21t-86 36q-41 -41 -93 -41q-167 0 -167 215q0 93 38 182q20 45 56.5 73.5
zM141 180q0 -113 50 -113q22 0 37 63.5t15 121.5q0 128 -42 128q-27 0 -43.5 -68.5t-16.5 -131.5zM406 379q-22 0 -39.5 -44t-20.5 -102q53 11 92 21q0 125 -32 125z" />
    <glyph glyph-name="Racute" unicode="&#x154;" horiz-adv-x="525" 
d="M62 -9q13 240 13 428t-1 247q110 52 229 52q88 0 147.5 -56t59.5 -158q0 -118 -167 -227q91 -114 186 -251l-96 -71q-63 95 -226 310q-3 -154 -9 -289zM336 419.5q52 51.5 52 93.5t-24.5 65t-64.5 23t-88 -17q0 -169 -1 -251q74 35 126 86.5zM239 737l-45 57
q113 74 184 105l54 -89q-95 -23 -193 -73z" />
    <glyph glyph-name="Rcommaaccent" unicode="&#x156;" horiz-adv-x="525" 
d="M62 -9q13 240 13 428t-1 247q110 52 229 52q88 0 147.5 -56t59.5 -158q0 -118 -167 -227q91 -114 186 -251l-96 -71q-63 95 -226 310q-3 -154 -9 -289zM336 419.5q52 51.5 52 93.5t-24.5 65t-64.5 23t-88 -17q0 -169 -1 -251q74 35 126 86.5zM229 -61l113 -31
q-7 -36 -27.5 -69.5t-60.5 -84.5l-52 8q21 102 27 177z" />
    <glyph glyph-name="rcommaaccent" unicode="&#x157;" horiz-adv-x="301" 
d="M239 361q-42 0 -63 -106q2 -70 2 -134t-4 -144l-116 10q3 147 3 162q0 185 -18 283l75 -8q7 -29 16 -51q49 105 99 105q41 0 72 -36l-26 -92q-16 11 -40 11zM57 -61l113 -31q-7 -36 -27.5 -69.5t-60.5 -84.5l-52 8q21 102 27 177z" />
    <glyph glyph-name="Rcaron" unicode="&#x158;" horiz-adv-x="525" 
d="M62 -9q13 240 13 428t-1 247q110 52 229 52q88 0 147.5 -56t59.5 -158q0 -118 -167 -227q91 -114 186 -251l-96 -71q-63 95 -226 310q-3 -154 -9 -289zM336 419.5q52 51.5 52 93.5t-24.5 65t-64.5 23t-88 -17q0 -169 -1 -251q74 35 126 86.5zM323 741l-68 5
q-31 30 -101 115l58 44q52 -46 81 -70q50 35 100 79l58 -43q-72 -81 -128 -130z" />
    <glyph glyph-name="rcaron" unicode="&#x159;" horiz-adv-x="301" 
d="M239 361q-42 0 -63 -106q2 -70 2 -134t-4 -144l-116 10q3 147 3 162q0 185 -18 283l75 -8q7 -29 16 -51q49 105 99 105q41 0 72 -36l-26 -92q-16 11 -40 11zM191 519l-68 5q-31 30 -101 115l58 44q52 -46 81 -70q50 35 100 79l58 -43q-72 -81 -128 -130z" />
    <glyph glyph-name="Scedilla" unicode="&#x15e;" horiz-adv-x="444" 
d="M302 437q13 49 13 82t-18 54.5t-46.5 21.5t-47.5 -28t-19 -64q0 -70 80 -120q80 -52 109 -75t41 -42q30 -49 30 -101q0 -87 -56 -139.5t-130 -56.5q2 -18 8 -34q12 3 23 3q34 0 59.5 -21t25.5 -61.5t-33 -64t-102 -23.5t-126 43l18 45q69 -37 115 -37q17 0 29.5 7.5
t12.5 20t-10 20.5t-24.5 8t-28.5 -7l-28 3q1 58 17 100q-117 22 -199 210l97 47q23 -60 57.5 -101.5t73.5 -41.5q25 0 45 16t20 48.5t-25 60.5t-67 57t-65 47.5t-51 47.5q-53 56 -53 143.5t61 147t145 59.5t141.5 -65t57.5 -133.5t-26 -117.5z" />
    <glyph glyph-name="scedilla" unicode="&#x15f;" horiz-adv-x="347" 
d="M237 315q0 60 -30 60q-15 0 -27.5 -14.5t-12.5 -39t9.5 -40.5t35 -31.5t40 -25t34.5 -26.5q41 -36 41 -92t-41 -90.5t-95 -36.5q0 -20 8 -44q12 3 23 3q34 0 59.5 -21t25.5 -61.5t-33 -64t-102 -23.5t-126 43l18 45q69 -37 115 -37q17 0 29.5 7.5t12.5 20t-10 20.5
t-24.5 8t-28.5 -7l-28 3q1 64 21 112q-80 19 -126 96l54 61q40 -69 84 -69q15 0 26 8.5t11 23.5q0 32 -46 59q-49 27 -77 60t-28 93.5t50 109t107.5 48.5t91 -39.5t33.5 -106.5q0 -27 -6 -58l-91 8q3 23 3 38z" />
    <glyph glyph-name="Scaron" unicode="&#x160;" horiz-adv-x="475" 
d="M302 437q13 49 13 82t-18 54.5t-46.5 21.5t-47.5 -28t-19 -64q0 -70 80 -120q80 -52 109 -75t41 -42q30 -49 30 -101q0 -90 -60.5 -143.5t-136.5 -53.5q-90 0 -151 76q-44 55 -81 137l97 47q23 -60 57.5 -101.5t73.5 -41.5q25 0 45 16t20 48.5t-25 60.5t-67 57t-65 47.5
t-51 47.5q-53 56 -53 143.5t61 147t145 59.5t141.5 -65t57.5 -133.5t-26 -117.5zM286 770l-68 5q-31 30 -101 115l58 44q52 -46 81 -70q50 35 100 79l58 -43q-72 -81 -128 -130z" />
    <glyph glyph-name="scaron" unicode="&#x161;" horiz-adv-x="347" 
d="M237 315q0 60 -30 60q-15 0 -27.5 -14.5t-12.5 -39t9.5 -40.5t35 -31.5t40 -25t34.5 -26.5q41 -36 41 -92.5t-42.5 -91.5t-95.5 -35t-95.5 28.5t-68.5 71.5l54 61q40 -69 84 -69q15 0 26 8.5t11 23.5q0 32 -46 59q-49 27 -77 60t-28 93.5t50 109t107.5 48.5t91 -39.5
t33.5 -106.5q0 -27 -6 -58l-91 8q3 23 3 38zM230 519l-68 5q-31 30 -101 115l58 44q52 -46 81 -70q50 35 100 79l58 -43q-72 -81 -128 -130z" />
    <glyph glyph-name="Ydieresis" unicode="&#x178;" horiz-adv-x="444" 
d="M161 191v77q-131 277 -145 399l125 -12q22 -112 92 -268q83 181 129 327l116 -11q-74 -211 -178 -429q-2 -90 -2 -158t4 -137l-132 14q-9 93 -9 198zM223 900q11 -16 11 -58t-14 -64l-95 10q9 50 9 76t-1 44zM378 902q11 -16 11 -58t-14 -64l-95 10q9 50 9 76t-1 44z" />
    <glyph glyph-name="Zcaron" unicode="&#x17d;" horiz-adv-x="458" 
d="M193 122q36 3 95 3t152 -14l-17 -119q-113 15 -174.5 15t-193.5 -22l-16 105q188 300 276 472q-138 -8 -241 -23l-19 117q123 26 393 29l17 -87q-148 -282 -272 -476zM283 770l-68 5q-31 30 -101 115l58 44q52 -46 81 -70q50 35 100 79l58 -43q-72 -81 -128 -130z" />
    <glyph glyph-name="zcaron" unicode="&#x17e;" horiz-adv-x="344" 
d="M55 461q80 16 147.5 16t107.5 -3l16 -92q-88 -123 -174 -278h48q65 0 128 -7l-13 -92q-62 6 -112 6t-141 -15l-18 103q113 209 167 282q-86 -7 -137 -19zM218 519l-68 5q-31 30 -101 115l58 44q52 -46 81 -70q50 35 100 79l58 -43q-72 -81 -128 -130z" />
    <glyph glyph-name="florin" unicode="&#x192;" horiz-adv-x="487" 
d="M343 662q48 0 78.5 -39t30.5 -96.5t-16 -112.5l-98 9q7 24 7 53q0 59 -22 59q-23 0 -47 -79q-13 -40 -19 -91l-7 -58q53 4 112 4l-10 -93q-72 0 -111 -5q-14 -164 -27 -257.5t-59.5 -147t-107 -53.5t-106.5 60l45 77q35 -22 56 -22q41 0 56 125q5 39 11 109.5t8 92.5
q-49 -8 -76 -17l-1 90q28 10 86 21l10 74q18 136 77 216.5t130 80.5z" />
    <glyph glyph-name="dotlessj" unicode="&#x237;" horiz-adv-x="252" 
d="M203 -5q0 -115 -39 -177.5t-94 -62.5q-24 0 -59.5 19t-61.5 51l35 77q39 -30 58.5 -30t34 29.5t14.5 83.5q0 341 -5 483l108 -11q9 -151 9 -462z" />
    <glyph glyph-name="circumflex" unicode="&#x2c6;" 
d="M223 672l68 -5q31 -30 101 -115l-58 -44q-52 46 -81 70q-50 -35 -100 -79l-58 43q72 81 128 130z" />
    <glyph glyph-name="caron" unicode="&#x2c7;" 
d="M276 519l-68 5q-31 30 -101 115l58 44q52 -46 81 -70q50 35 100 79l58 -43q-72 -81 -128 -130z" />
    <glyph glyph-name="breve" unicode="&#x2d8;" 
d="M208 609q13 -16 36.5 -16t42.5 20t19 48l75 -6q0 -52 -42 -93t-97.5 -41t-88.5 37t-33 97l75 -6q0 -24 13 -40z" />
    <glyph glyph-name="dotaccent" unicode="&#x2d9;" 
d="M299 650q11 -16 11 -56.5t-14 -64.5l-110 10q9 49 9 75.5t-1 44.5z" />
    <glyph glyph-name="ring" unicode="&#x2da;" 
d="M215 577.5q11 -11.5 31.5 -11.5t35 19.5t14.5 41.5t-11 33t-31.5 11t-35 -19t-14.5 -41t11 -33.5zM331 548q-35 -37 -85.5 -37t-81 26.5t-30.5 70.5t35 81t85.5 37t81 -26.5t30.5 -70.5t-35 -81z" />
    <glyph glyph-name="ogonek" unicode="&#x2db;" 
d="M254 -131q0 -22 19 -22q30 0 61 31l46 -28q-53 -78 -122 -78q-37 0 -65.5 26.5t-28.5 70.5q0 74 112 139l75 -7q-97 -65 -97 -132z" />
    <glyph glyph-name="tilde" unicode="&#x2dc;" 
d="M373 570.5q-29 -35.5 -58.5 -35.5t-57.5 9t-48.5 9t-43.5 -23l-60 32q40 85 93 85q20 0 50 -14t45 -14q28 0 52 32l60 -5q-3 -40 -32 -75.5z" />
    <glyph glyph-name="hungarumlaut" unicode="&#x2dd;" 
d="M131 515l-55 47q82 86 144 130l74 -69q-81 -33 -163 -108zM320 513l-48 54q90 73 159 110l65 -79q-85 -21 -176 -85z" />
    <glyph glyph-name="dotaccentcmb" unicode="&#x307;" 
d="M299 650q11 -16 11 -56.5t-14 -64.5l-110 10q9 49 9 75.5t-1 44.5z" />
    <glyph glyph-name="Omega" unicode="&#x3a9;" horiz-adv-x="558" 
d="M384 382q0 103 -26.5 154t-68 51t-73.5 -71.5t-32 -185.5q0 -175 66 -256q-3 -14 -10 -39.5t-9 -38.5q-25 -2 -83.5 -12.5t-91.5 -11.5l-20 106q27 3 83 13q-68 91 -68 248.5t71.5 262t168.5 104.5t161.5 -81t64.5 -243q0 -85 -27.5 -168t-70.5 -134q41 5 91 16l20 -106
q-21 -3 -112 -20l-106 9q-4 41 -7 88q79 108 79 315z" />
    <glyph glyph-name="Omega" unicode="&#x2126;" horiz-adv-x="558" 
d="M384 382q0 103 -26.5 154t-68 51t-73.5 -71.5t-32 -185.5q0 -175 66 -256q-3 -14 -10 -39.5t-9 -38.5q-25 -2 -83.5 -12.5t-91.5 -11.5l-20 106q27 3 83 13q-68 91 -68 248.5t71.5 262t168.5 104.5t161.5 -81t64.5 -243q0 -85 -27.5 -168t-70.5 -134q41 5 91 16l20 -106
q-21 -3 -112 -20l-106 9q-4 41 -7 88q79 108 79 315z" />
    <glyph glyph-name="pi" unicode="&#x3c0;" horiz-adv-x="563" 
d="M118 355q-26 -4 -68 -7l-22 101q123 17 244 25l237 10l19 -96q-51 0 -76 -1q7 -83 7 -188t-13 -213l-114 11q7 101 7 200t-3 181q-70 -6 -105 -10l-1 -66q0 -152 13 -328l-114 11q-11 166 -11 370z" />
    <glyph glyph-name="endash" unicode="&#x2013;" 
d="M0 268l260 8q149 0 241 -11l-18 -80q-81 11 -213 11l-270 -8v80z" />
    <glyph glyph-name="emdash" unicode="&#x2014;" horiz-adv-x="1000" 
d="M0 268l560 8q274 0 441 -11l-18 -80q-156 11 -413 11l-570 -8v80z" />
    <glyph glyph-name="quoteleft" unicode="&#x2018;" horiz-adv-x="208" 
d="M85 716l102 -12q-7 -116 -37 -282l-118 36q41 124 53 258z" />
    <glyph glyph-name="quoteright" unicode="&#x2019;" horiz-adv-x="208" 
d="M142 432l-102 12q7 116 37 282l118 -36q-41 -124 -53 -258z" />
    <glyph glyph-name="quotesinglbase" unicode="&#x201a;" horiz-adv-x="208" 
d="M124 -108l-102 12q7 116 37 282l118 -36q-41 -124 -53 -258z" />
    <glyph glyph-name="quotedblleft" unicode="&#x201c;" horiz-adv-x="390" 
d="M85 716l102 -12q-7 -116 -37 -282l-118 36q41 124 53 258zM267 716l102 -12q-7 -116 -37 -282l-118 36q41 124 53 258z" />
    <glyph glyph-name="quotedblright" unicode="&#x201d;" horiz-adv-x="390" 
d="M142 432l-102 12q7 116 37 282l118 -36q-41 -124 -53 -258zM323 432l-102 12q7 116 37 282l118 -36q-41 -124 -53 -258z" />
    <glyph glyph-name="quotedblbase" unicode="&#x201e;" horiz-adv-x="390" 
d="M124 -108l-102 12q7 116 37 282l118 -36q-41 -124 -53 -258zM306 -108l-102 12q7 116 37 282l118 -36q-41 -124 -53 -258z" />
    <glyph glyph-name="dagger" unicode="&#x2020;" horiz-adv-x="520" 
d="M38 489l139 7q3 132 11 215l140 -13q-8 -90 -10 -201q84 -2 149 -7l4 -108q-63 5 -155 7v-66q0 -307 11 -455l-138 13q-13 168 -13 442v65q-98 -7 -126 -7z" />
    <glyph glyph-name="daggerdbl" unicode="&#x2021;" horiz-adv-x="520" 
d="M38 219q61 0 138 7v37q0 83 1 125q-98 -7 -127 -7l-12 108l139 7q3 132 11 215l140 -13q-8 -90 -10 -201q84 -2 149 -7l4 -108q-63 5 -155 7v-162q86 -2 151 -7l4 -108q-61 5 -154 7q2 -135 10 -251l-138 13q-8 97 -11 237q-98 -7 -128 -7z" />
    <glyph glyph-name="bullet" unicode="&#x2022;" horiz-adv-x="590" 
d="M402 484q17 -31 17 -94.5t-20 -150.5l-227 21q11 99 11 154.5t-1 88.5z" />
    <glyph glyph-name="ellipsis" unicode="&#x2026;" horiz-adv-x="930" 
d="M225 159q11 -35 11 -89.5t-14 -90.5l-135 11q9 77 9 117t-1 64zM528 159q11 -35 11 -89.5t-14 -90.5l-135 11q9 76 9 116.5t-1 64.5zM832 159q11 -35 11 -89.5t-14 -90.5l-135 11q9 77 9 117t-1 64z" />
    <glyph glyph-name="perthousand" unicode="&#x2030;" horiz-adv-x="1012" 
d="M132 514q-12 -39 -12 -76q0 -68 42 -68q15 0 28 28.5t13 65.5q0 89 -39 89q-20 0 -32 -39zM64 320q-36 41 -36 115.5t37.5 141t101 66.5t95.5 -50t32 -125t-41 -132t-91 -57q-62 0 -98 41zM502 210q-12 -39 -12 -76q0 -68 42 -68q15 0 28 28.5t13 65.5q0 89 -39 89
q-20 0 -32 -39zM434 16q-36 41 -36 115.5t37.5 141t101 66.5t95.5 -50t32 -125t-41 -132t-91 -57q-62 0 -98 41zM837 210q-12 -39 -12 -76q0 -68 42 -68q15 0 28 28.5t13 65.5q0 89 -39 89q-20 0 -32 -39zM769 16q-36 41 -36 115.5t37.5 141t101 66.5t95.5 -50t32 -125
t-41 -132t-91 -57q-62 0 -98 41zM183 -23l-77 29q250 436 454 660l64 -40q-116 -130 -219 -284t-222 -365z" />
    <glyph glyph-name="guilsinglleft" unicode="&#x2039;" horiz-adv-x="277" 
d="M145 425l105 -25q-36 -90 -94 -182q46 -105 99 -173l-96 -41q-67 77 -131 218q77 107 117 203z" />
    <glyph glyph-name="guilsinglright" unicode="&#x203a;" horiz-adv-x="277" 
d="M128 4l-105 25q36 90 94 182q-46 105 -99 173l96 41q67 -77 131 -218q-77 -107 -117 -203z" />
    <glyph glyph-name="fraction" unicode="&#x2044;" horiz-adv-x="546" 
d="M91 -23l-77 29q250 436 454 660l64 -40q-116 -130 -219 -284t-222 -365z" />
    <glyph glyph-name="franc" unicode="&#x20a3;" horiz-adv-x="723" 
d="M421 688v-123q-112 0 -210 -7q-2 -29 -3.5 -102.5t-2.5 -90.5q112 15 180 15l20 -110q-112 -3 -201 -14q0 -156 4 -275l-135 15q-2 162 -2 301t16 365q171 26 334 26zM661 361q-42 0 -63 -106q2 -70 2 -134t-4 -144l-116 10q3 147 3 162q0 185 -18 283l75 -8
q7 -29 16 -51q49 105 99 105q41 0 72 -36l-26 -92q-16 11 -40 11z" />
    <glyph glyph-name="Euro" unicode="&#x20ac;" horiz-adv-x="484" 
d="M138 570.5q53 72.5 135 72.5t124.5 -60t45.5 -138l-113 11q0 87 -56 87q-26 0 -48.5 -39t-38.5 -98q105 10 203 10l4 -75q-114 0 -222 -7q-4 -30 -5 -44q124 9 223 9l4 -75q-149 0 -228 -4q8 -138 82 -138q31 0 48.5 30t30.5 81l110 -11q-53 -200 -189 -200
q-91 0 -143.5 63.5t-59.5 165.5l-30 -4l-12 68l42 4l3 41l-33 -6l-12 68l58 8q24 108 77 180.5z" />
    <glyph glyph-name="trademark" unicode="&#x2122;" horiz-adv-x="718" 
d="M152 432q-3 63 -3 118.5t1 93.5l-47 -8l-9 66q53 8 180 14l8 -64q-22 0 -49 -4q-2 -30 -2 -103t2 -117zM398 625l9 -199l-78 6q-2 104 -2 158.5t6 108.5l125 -8q7 -48 13 -119q13 54 25 137l126 -10l2 -139q0 -96 -3 -139l-79 7q6 60 8 191h-4q-16 -93 -32 -167l-86 7
q-6 35 -14.5 90.5t-11.5 74.5z" />
    <glyph glyph-name="partialdiff" unicode="&#x2202;" horiz-adv-x="429" 
d="M219 487q14 0 36 -2q-35 91 -97 91q-16 0 -58 -29l-62 80q81 69 144 69t114.5 -58t76.5 -146t25.5 -161.5t-11 -124t-34.5 -97.5t-63.5 -77t-92.5 -30q-94 0 -130.5 53t-36.5 150q0 92 48 183q22 43 59 71t82 28zM211 110q29 0 50 64.5t21 129.5q0 75 -64 75
q-29 0 -50 -58t-21 -116q0 -95 64 -95z" />
    <glyph glyph-name="increment" unicode="&#x2206;" horiz-adv-x="651" 
d="M439 676l177 -700l-443 -21l-138 12l219 725zM337 561l-134 -489l247 10z" />
    <glyph glyph-name="product" unicode="&#x220f;" horiz-adv-x="558" 
d="M367 -1q10 150 10 331t-3 270q-87 -5 -188 -20q-2 -168 -2 -299.5t4 -298.5l-132 12q-8 260 -8 387t19 299q98 17 147 21t141 11l150 -13q8 -325 8 -463.5t-9 -249.5z" />
    <glyph glyph-name="summation" unicode="&#x2211;" horiz-adv-x="447" 
d="M80 553l7 109q171 26 334 26v-123q-102 0 -185 -7q106 -96 160 -157v-112q-102 -121 -176 -188q81 7 193 30l17 -110q-85 -39 -201 -39l-154 14l-5 125q110 92 221 223q-65 81 -211 209z" />
    <glyph glyph-name="minus" unicode="&#x2212;" horiz-adv-x="833" 
d="M123 355l356 8q149 0 241 -11l-18 -120q-81 11 -213 11l-366 -8v120z" />
    <glyph glyph-name="radical" unicode="&#x221a;" horiz-adv-x="584" 
d="M255 -16l-128 12q-74 298 -90 467l114 -10q17 -184 47 -330q57 202 134 600q98 12 186 12l19 -96q-49 0 -114 -7q-66 -317 -168 -648z" />
    <glyph glyph-name="infinity" unicode="&#x221e;" horiz-adv-x="833" 
d="M411 422q70 80 152.5 80t134 -59t51.5 -140.5t-60.5 -140.5t-130.5 -59q-94 0 -145 92q-69 -93 -162 -93q-56 0 -113 44q-27 22 -45 59.5t-18 83.5q0 76 60.5 137t139 61t136.5 -65zM620.5 358.5q-18.5 23.5 -45.5 23.5t-45.5 -15.5t-27 -30t-21.5 -40.5q38 -73 84 -73
q33 0 53.5 24t20.5 56t-18.5 55.5zM309.5 349.5q-24.5 17.5 -51.5 17.5t-50 -23t-23 -54t23 -49.5t47 -18.5q43 0 91 86q-12 24 -36.5 41.5z" />
    <glyph glyph-name="integral" unicode="&#x222b;" horiz-adv-x="496" 
d="M307 326.5q19 -138.5 19 -234.5t-39 -156.5t-98 -60.5t-88.5 43t-29.5 117l83 -7q0 -46 25 -46q30 0 30 120q0 79 -19 216.5t-19 226t39 143t98.5 54.5t88.5 -41t29 -115l-83 7q0 42 -25 42q-30 0 -30 -100q0 -70 19 -208.5z" />
    <glyph glyph-name="approxequal" unicode="&#x2248;" horiz-adv-x="833" 
d="M151.5 439.5q54.5 56.5 114 56.5t138.5 -21t116 -21q88 0 140 57l88 -7q-14 -83 -69.5 -129.5t-140.5 -46.5q-62 0 -142.5 25t-112 25t-55 -21t-31.5 -50l-112 11q12 65 66.5 121.5zM151.5 227.5q54.5 56.5 114 56.5t138.5 -21t116 -21q88 0 140 57l88 -7
q-14 -83 -69.5 -129.5t-140.5 -46.5q-62 0 -142.5 25t-112 25t-55 -21t-31.5 -50l-112 11q12 65 66.5 121.5z" />
    <glyph glyph-name="notequal" unicode="&#x2260;" horiz-adv-x="833" 
d="M123 464l330 8q63 99 111 160l95 -65q-33 -41 -71 -97q69 -2 132 -9l-18 -120q-68 9 -188 11l-57 -99h22q149 0 241 -11l-18 -120q-81 11 -180 11t-132 -1q-52 -91 -91 -156l-95 52l53 99q-88 -2 -134 -2v120q84 0 201 5l56 100q-252 -6 -257 -6v120z" />
    <glyph glyph-name="lessequal" unicode="&#x2264;" horiz-adv-x="833" 
d="M123 104l356 8q149 0 241 -11l-18 -110q-81 11 -213 11l-366 -8v110zM128 330l11 109q310 88 536 186l25 -125q-169 -60 -414 -122q253 -82 419 -113l-26 -111q-275 57 -551 176z" />
    <glyph glyph-name="greaterequal" unicode="&#x2265;" horiz-adv-x="833" 
d="M123 104l356 8q149 0 241 -11l-18 -110q-81 11 -213 11l-366 -8v110zM705 434l-11 -109q-310 -88 -536 -186l-25 125q169 60 414 122q-253 82 -419 113l26 111q275 -57 551 -176z" />
    <glyph glyph-name="lozenge" unicode="&#x25ca;" horiz-adv-x="521" 
d="M521 301l-219 -480l-105 16l-197 445l219 480l105 -16zM422 306l-155 355l-169 -384l155 -355z" />
    <glyph glyph-name="dotaccentcmb.cap" unicode="&#xe000;" horiz-adv-x="234" 
d="M168 901q11 -16 11 -56.5t-14 -64.5l-110 10q9 50 9 76t-1 44z" />
    <glyph glyph-name="apple" unicode="&#xf000;" horiz-adv-x="790" 
d="M408 594l-1 18q0 62 49 114.5t113 61.5l1 -30q0 -56 -47.5 -110.5t-102.5 -54.5q-7 0 -12 1zM535 -17q-25 0 -64 16t-61 16t-63 -16t-62 -16q-61 0 -126 86q-104 141 -104 291q0 103 59.5 172t159.5 69q32 0 74.5 -16.5t60 -16.5t61.5 17t74 17q107 0 175 -80
q-98 -63 -98 -160q0 -113 114 -165q-55 -121 -101 -168q-43 -46 -99 -46z" />
    <glyph glyph-name="fi" unicode="&#xfb01;" horiz-adv-x="540" 
d="M71 445q0 135 54 212.5t139.5 77.5t131 -60t45.5 -162l-102 10q0 41 -20 66t-53.5 25t-55.5 -45t-22 -124v-23q81 4 161 4l114 -11v-429l-114 11v331q-100 0 -160 -5q0 -161 11 -340l-117 12q-8 138 -11 312q-26 -4 -36 -7l-21 90q6 2 56 16v39z" />
    <glyph glyph-name="fl" unicode="&#xfb02;" horiz-adv-x="516" 
d="M71 445q0 135 54 212.5t143 77.5q63 0 108 -56l3 50l97 -8q-15 -253 -15 -455.5t5 -284.5l-118 11q-4 104 -4 259.5t4 287.5q-25 90 -80 90q-36 0 -58 -49t-22 -135v-28q53 4 109 4v-93q-69 0 -108 -5q0 -161 11 -340l-117 12q-8 138 -11 312q-26 -4 -36 -7l-21 90
q10 3 56 11v44z" />
    <glyph glyph-name="NULL" horiz-adv-x="0" 
 />
    <glyph glyph-name="CR" horiz-adv-x="242" 
 />
    <glyph glyph-name="middot" horiz-adv-x="260" 
d="M193 409q11 -39 11 -98.5t-14 -96.5l-145 11q9 81 9 125t-1 71z" />
    <glyph glyph-name="overscore" horiz-adv-x="403" 
d="M45 635l214 9q51 0 95 -3l4 -98q-48 3 -99 3l-202 -9z" />
    <glyph glyph-name="commaaccent" horiz-adv-x="242" 
d="M69 -61l113 -31q-7 -36 -27.5 -69.5t-60.5 -84.5l-52 8q21 102 27 177z" />
    <glyph glyph-name="grave.cap" horiz-adv-x="348" 
d="M293 823l-45 -57q-98 50 -193 73l54 89q71 -31 184 -105z" />
    <glyph glyph-name="acute.cap" horiz-adv-x="348" 
d="M100 766l-45 57q113 74 184 105l54 -89q-95 -23 -193 -73z" />
    <glyph glyph-name="circumflex.cap" horiz-adv-x="407" 
d="M183 923l68 -5q31 -30 101 -115l-58 -44q-52 46 -81 70q-50 -35 -100 -79l-58 43q72 81 128 130z" />
    <glyph glyph-name="dieresis.cap" horiz-adv-x="374" 
d="M153 900q11 -16 11 -58t-14 -64l-95 10q9 50 9 76t-1 44zM308 902q11 -16 11 -58t-14 -64l-95 10q9 50 9 76t-1 44z" />
    <glyph glyph-name="caron.cap" horiz-adv-x="407" 
d="M224 770l-68 5q-31 30 -101 115l58 44q52 -46 81 -70q50 35 100 79l58 -43q-72 -81 -128 -130z" />
    <glyph glyph-name="ring.cap" horiz-adv-x="343" 
d="M135 794.5q11 -11.5 31.5 -11.5t35 19.5t14.5 41.5t-11 33t-31.5 11t-35 -19t-14.5 -41t11 -33.5zM251 765q-35 -37 -85.5 -37t-81 26.5t-30.5 70.5t35 81t85.5 37t81 -26.5t30.5 -70.5t-35 -81z" />
    <glyph glyph-name="tilde.cap" horiz-adv-x="410" 
d="M323 821.5q-29 -35.5 -58.5 -35.5t-57.5 9t-48.5 9t-43.5 -23l-60 32q40 85 93 85q20 0 50 -14t45 -14q28 0 52 32l60 -5q-3 -40 -32 -75.5z" />
    </font>
</defs>
</svg>
